<svg width="19" height="17" viewBox="0 0 19 17" fill="none" xmlns="http://www.w3.org/2000/svg">
<path d="M10.3636 9.42208C10.3636 9.89905 9.97697 10.2857 9.5 10.2857C9.02303 10.2857 8.63636 9.89905 8.63636 9.42208V7.72078C8.63636 7.24381 9.02303 6.85714 9.5 6.85714C9.97697 6.85714 10.3636 7.24381 10.3636 7.72078V9.42208ZM10.3636 12.8571C10.3636 13.3305 9.97339 13.7143 9.5 13.7143C9.02661 13.7143 8.63636 13.3305 8.63636 12.8571C8.63636 12.3838 9.02661 12 9.5 12C9.97339 12 10.3636 12.3838 10.3636 12.8571ZM0.877259 14.7818C0.488376 15.4485 0.969246 16.2857 1.74104 16.2857H17.259C18.0308 16.2857 18.5116 15.4485 18.1227 14.7818L10.3638 1.48077C9.9779 0.81926 9.0221 0.819259 8.63622 1.48076L0.877259 14.7818Z" fill="#FFC324"/>
</svg>
