<svg width="16" height="16" viewBox="0 0 16 16" fill="none" xmlns="http://www.w3.org/2000/svg">
<path d="M4.9537 2.74253L3.04916 3.80907L4.1157 1.90454L3.04916 0L4.9537 1.06654L6.85823 0L5.79169 1.90454L6.85823 3.80907L4.9537 2.74253ZM14.0955 10.2083L16 9.14177L14.9335 11.0463L16 12.9508L14.0955 11.8843L12.1909 12.9508L13.2575 11.0463L12.1909 9.14177L14.0955 10.2083ZM16 0L14.9335 1.90454L16 3.80907L14.0955 2.74253L12.1909 3.80907L13.2575 1.90454L12.1909 0L14.0955 1.06654L16 0ZM9.40269 8.21236L11.2615 6.35353L9.64647 4.73848L7.78764 6.59731L9.40269 8.21236ZM10.1874 4.03L11.97 5.81264C12.2671 6.09451 12.2671 6.58969 11.97 6.8868L3.07963 15.7772C2.78253 16.0743 2.28735 16.0743 2.00548 15.7772L0.222831 13.9945C-0.0742769 13.7127 -0.0742769 13.2175 0.222831 12.9204L9.1132 4.03C9.41031 3.73289 9.90549 3.73289 10.1874 4.03Z" fill="white"/>
</svg>
