<svg width="20" height="20" viewBox="0 0 20 20" fill="none" xmlns="http://www.w3.org/2000/svg">
<path d="M0 11.5C0 12.0523 0.447715 12.5 1 12.5H19C19.5523 12.5 20 12.0523 20 11.5V8.5C20 7.94772 19.5523 7.5 19 7.5H1C0.447715 7.5 0 7.94772 0 8.5V11.5ZM0 19C0 19.5523 0.447715 20 1 20H19C19.5523 20 20 19.5523 20 19V16C20 15.4477 19.5523 15 19 15H1C0.447715 15 0 15.4477 0 16V19ZM0 4C0 4.55228 0.447715 5 1 5H19C19.5523 5 20 4.55228 20 4V1C20 0.447715 19.5523 0 19 0H1C0.447715 0 0 0.447715 0 1V4Z" fill="#8DA5B7"/>
</svg>
