<svg width="18" height="18" viewBox="0 0 18 18" fill="none" xmlns="http://www.w3.org/2000/svg">
<path fill-rule="evenodd" clip-rule="evenodd" d="M0.868444 4.40375C0.477919 4.01322 0.477919 3.38006 0.868444 2.98953L2.98976 0.868212C3.38029 0.477686 4.01345 0.477686 4.40398 0.868212L9.00012 5.46436L13.5963 0.868227C13.9868 0.477703 14.6199 0.477703 15.0105 0.868227L17.1318 2.98955C17.5223 3.38007 17.5223 4.01324 17.1318 4.40376L12.5357 8.99989L17.1319 13.5961C17.5224 13.9867 17.5224 14.6198 17.1319 15.0103L15.0106 17.1317C14.6201 17.5222 13.9869 17.5222 13.5964 17.1317L9.00012 12.5354L4.40387 17.1317C4.01334 17.5222 3.38018 17.5222 2.98965 17.1317L0.868334 15.0104C0.477808 14.6198 0.477808 13.9867 0.868334 13.5961L5.46459 8.99989L0.868444 4.40375Z" fill="#8DA5B7"/>
</svg>
