<svg width="28" height="21" viewBox="0 0 28 21" fill="none" xmlns="http://www.w3.org/2000/svg">
<path d="M19.5 8.9C19.5 9.45228 19.0523 9.9 18.5 9.9H18.3C17.7477 9.9 17.3 9.45229 17.3 8.9V8.7C17.3 8.14772 17.7477 7.7 18.3 7.7H18.5C19.0523 7.7 19.5 8.14772 19.5 8.7V8.9ZM15.1 8.9C15.1 9.45228 14.6523 9.9 14.1 9.9H13.9C13.3477 9.9 12.9 9.45229 12.9 8.9V8.7C12.9 8.14772 13.3477 7.7 13.9 7.7H14.1C14.6523 7.7 15.1 8.14772 15.1 8.7V8.9ZM10.7 8.9C10.7 9.45228 10.2523 9.9 9.7 9.9H9.5C8.94772 9.9 8.5 9.45229 8.5 8.9V8.7C8.5 8.14772 8.94771 7.7 9.5 7.7H9.7C10.2523 7.7 10.7 8.14772 10.7 8.7V8.9ZM25.8 0H2.2C1.61652 0 1.05695 0.231785 0.644365 0.644365C0.231785 1.05695 0 1.61652 0 2.2V19.5858C0 20.4767 1.07714 20.9229 1.70711 20.2929L4.10711 17.8929C4.29464 17.7054 4.549 17.6 4.81421 17.6H25.8C26.3835 17.6 26.9431 17.3682 27.3556 16.9556C27.7682 16.5431 28 15.9835 28 15.4V2.2C28 0.979 27.01 0 25.8 0Z" fill="rgba(255,255,255,.5)"/>
</svg>
