<svg width="29" height="22" viewBox="0 0 29 22" fill="none" xmlns="http://www.w3.org/2000/svg">
<path d="M10.2574 13.5385C6.96324 13.5385 0.375 15.2308 0.375 18.6154V22H20.1397V18.6154C20.1397 15.2308 13.5515 13.5385 10.2574 13.5385ZM21.1609 13.8092C22.5279 15.0277 23.4338 16.6185 23.4338 18.6154V22H28.375V18.6154C28.375 16.0092 24.4715 14.3846 21.1609 13.8092ZM10.2574 10.1538C11.5678 10.1538 12.8246 9.61896 13.7513 8.66685C14.6779 7.71474 15.1985 6.42341 15.1985 5.07692C15.1985 3.73044 14.6779 2.4391 13.7513 1.487C12.8246 0.534889 11.5678 0 10.2574 0C8.94687 0 7.69006 0.534889 6.76341 1.487C5.83676 2.4391 5.31618 3.73044 5.31618 5.07692C5.31618 6.42341 5.83676 7.71474 6.76341 8.66685C7.69006 9.61896 8.94687 10.1538 10.2574 10.1538ZM18.4926 10.1538C19.8031 10.1538 21.0599 9.61896 21.9866 8.66685C22.9132 7.71474 23.4338 6.42341 23.4338 5.07692C23.4338 3.73044 22.9132 2.4391 21.9866 1.487C21.0599 0.534889 19.8031 0 18.4926 0C17.9656 0 17.455 0.0846151 16.9774 0.236923C17.9162 1.60769 18.4926 3.28308 18.4926 5.07692C18.4926 6.87077 17.9162 8.52923 16.9774 9.9C17.455 10.0692 17.9656 10.1538 18.4926 10.1538Z" fill="#192837"/>
</svg>
