<svg width="399" height="577" viewBox="0 0 399 577" fill="none" xmlns="http://www.w3.org/2000/svg">
<g opacity="0.35">
<path d="M199.65 76.7981C196.389 76.7981 174.941 76.7981 170.175 76.7981C146.219 76.7981 148.1 65.2598 142.707 52.8437C137.439 40.4275 132.924 28.0114 129.412 15.7206C125.9 3.30444 118.751 3.30444 109.971 3.30444C101.066 3.30444 85.0117 3.30444 79.6184 6.56525C62.6861 16.7239 38.8555 102.007 29.4487 150.417C26.9402 163.586 3.23494 253.007 3.23494 324.745C3.10952 336.033 3.23494 347.822 3.23494 360.112C3.23494 457.811 11.1367 515.503 12.6418 529.298C14.1469 542.718 28.3198 554.883 35.3436 554.883C42.3674 554.883 73.0963 554.883 75.354 554.883C89.2761 554.883 99.1846 537.701 141.578 528.922" stroke="#8191A4" stroke-width="3" stroke-miterlimit="10"/>
<path d="M200.277 404.259H199.022H169.297" stroke="#8191A4" stroke-width="3" stroke-miterlimit="10"/>
<path d="M94.1677 547.233C94.1677 547.233 149.982 554.883 199.775 554.883" stroke="#8191A4" stroke-width="3" stroke-miterlimit="10"/>
<path d="M35.3435 554.758C35.3435 554.758 137.063 573.821 199.65 573.821" stroke="#8191A4" stroke-width="3" stroke-miterlimit="10"/>
<path d="M142.08 522.4L151.863 409.652C121.259 393.598 80.2456 356.726 43.998 291.761C49.3912 242.974 67.2015 160.827 69.71 149.539C83.3812 89.2143 108.968 93.4784 108.968 76.5473C108.968 60.7449 108.968 17.6018 108.717 3.30444C107.839 3.30444 107.086 3.30444 106.208 3.30444C97.3033 3.30444 85.0118 3.30444 79.6185 6.56525C69.9608 12.3344 58.0455 42.685 47.8861 76.5473C40.8623 102.508 33.5877 130.476 30.4521 145.777C30.0758 147.282 29.825 148.787 29.5741 150.292C27.0657 163.46 3.36043 252.882 3.36043 324.62C3.23501 335.907 3.36043 347.696 3.36043 359.987C3.36043 457.686 11.2622 515.377 12.7673 529.173C14.2724 542.592 28.4453 554.758 35.4691 554.758C42.4929 554.758 73.2219 554.758 75.4795 554.758C89.2762 554.758 99.1847 533.186 142.08 522.4Z" stroke="#8191A4" stroke-width="3" stroke-miterlimit="10"/>
<path d="M141.453 528.797C99.0592 537.576 89.1506 554.758 75.2285 554.758C89.1506 554.758 99.0591 533.186 141.954 522.4L141.453 528.797Z" stroke="#8191A4" stroke-width="3" stroke-miterlimit="10"/>
<path d="M162.022 404.259H152.365L141.453 528.797L151.236 528.17L162.022 404.259Z" stroke="#8191A4" stroke-width="3" stroke-miterlimit="10"/>
<path d="M94.0424 362.621L89.5271 357.479L148.1 250.248L149.982 257.522L146.595 265.298L94.0424 362.621Z" stroke="#8191A4" stroke-width="3" stroke-miterlimit="10"/>
<path d="M129.161 175.375L125.147 159.823C115.741 171.863 89.6523 207.481 89.6523 241.344C89.6523 273.199 105.581 299.16 114.737 311.451L121.636 298.784C121.636 298.784 101.317 273.952 101.317 240.967C101.317 207.858 128.91 175.626 129.161 175.375Z" stroke="#8191A4" stroke-width="3" stroke-miterlimit="10"/>
<path d="M148.1 250.248L129.036 175.375C129.036 175.375 101.191 207.983 101.191 240.967C101.191 274.077 121.51 298.784 121.51 298.784L146.219 253.634L148.1 250.248Z" stroke="#8191A4" stroke-width="3" stroke-miterlimit="10"/>
<path d="M12.3909 232.063C24.0553 269.938 42.3673 306.434 65.9471 338.415C91.4083 373.03 121.636 400.622 151.361 416.424L151.988 409.652C102.069 382.06 40.2351 312.078 14.8994 218.142L12.3909 232.063Z" stroke="#8191A4" stroke-width="3" stroke-miterlimit="10"/>
<path d="M108.341 93.7293L150.358 259.027H159.137L114.863 84.9502C113.483 88.3364 111.1 91.0956 108.341 93.7293Z" stroke="#8191A4" stroke-width="3" stroke-miterlimit="10"/>
<path d="M116.242 3.17908L108.717 3.30449C108.968 18.6052 108.968 67.0157 108.968 76.5473C108.968 80.1844 107.964 82.6927 106.083 85.0756C104.703 86.9568 102.822 88.7126 100.439 90.8447C91.5337 99.2476 78.2387 111.789 69.7098 149.414C66.6996 162.708 49.8928 242.598 43.9978 291.635L50.269 302.797L50.8961 297.655C56.164 249.621 74.0997 164.589 77.1099 150.919C85.137 115.552 96.9269 104.264 105.707 96.1122C106.585 95.2343 107.588 94.3564 108.466 93.4784C111.225 90.8447 113.483 88.0856 114.988 84.6993C115.991 82.3164 116.619 79.5573 116.619 76.2965C116.493 63.1278 116.493 18.1036 116.242 3.17908Z" stroke="#8191A4" stroke-width="3" stroke-miterlimit="10"/>
<path d="M199.65 76.7981C202.911 76.7981 224.358 76.7981 229.124 76.7981C253.08 76.7981 251.199 65.2598 256.592 52.8437C261.86 40.4275 266.375 28.0114 269.887 15.7206C273.399 3.30444 280.548 3.30444 289.328 3.30444C298.233 3.30444 314.288 3.30444 319.681 6.56525C336.613 16.7239 360.444 102.007 369.851 150.417C372.359 163.586 396.064 253.007 396.064 324.745C396.19 336.033 396.064 347.822 396.064 360.112C396.064 457.811 388.163 515.503 386.657 529.298C385.152 542.718 370.979 554.883 363.956 554.883C356.932 554.883 326.203 554.883 323.945 554.883C310.023 554.883 300.115 537.701 257.721 528.922" stroke="#8191A4" stroke-width="3" stroke-miterlimit="10"/>
<path d="M250.07 259.027H199.649H149.354L146.595 265.298H199.649H252.829L250.07 259.027Z" stroke="#8191A4" stroke-width="3" stroke-miterlimit="10"/>
<path d="M199.022 404.259H200.277H230.002" stroke="#8191A4" stroke-width="3" stroke-miterlimit="10"/>
<path d="M305.257 547.233C305.257 547.233 249.443 554.883 199.65 554.883" stroke="#8191A4" stroke-width="3" stroke-miterlimit="10"/>
<path d="M364.081 554.758C364.081 554.758 262.362 573.821 199.775 573.821" stroke="#8191A4" stroke-width="3" stroke-miterlimit="10"/>
<path d="M257.345 522.4L247.562 409.652C278.165 393.598 319.179 356.726 355.427 291.761C350.034 242.974 332.223 160.827 329.715 149.539C316.169 89.2143 290.457 93.4784 290.457 76.5473C290.457 60.7449 290.457 17.6018 290.708 3.30444C291.586 3.30444 292.338 3.30444 293.216 3.30444C302.121 3.30444 314.413 3.30444 319.806 6.56525C329.464 12.3344 341.379 42.685 351.539 76.5473C358.562 102.508 365.837 130.476 368.973 145.777C369.349 147.282 369.6 148.787 369.851 150.292C372.359 163.46 396.064 252.882 396.064 324.62C396.19 335.907 396.064 347.696 396.064 359.987C396.064 457.686 388.163 515.377 386.657 529.173C385.152 542.592 370.979 554.758 363.956 554.758C356.932 554.758 326.203 554.758 323.945 554.758C310.023 554.758 300.24 533.186 257.345 522.4Z" stroke="#8191A4" stroke-width="3" stroke-miterlimit="10"/>
<path d="M257.846 528.797C300.24 537.576 310.148 554.758 324.071 554.758C310.148 554.758 300.24 533.186 257.345 522.4L257.846 528.797Z" stroke="#8191A4" stroke-width="3" stroke-miterlimit="10"/>
<path d="M237.402 404.259H247.06L257.847 528.797L248.189 528.17L237.402 404.259Z" stroke="#8191A4" stroke-width="3" stroke-miterlimit="10"/>
<path d="M237.402 404.259H200.653H200.402H199.9H199.65H199.399H198.897H198.646H161.897L151.11 528.17C151.11 528.17 151.863 528.17 153.243 528.044C162.775 527.543 177.826 527.041 196.765 527.041C197.643 527.041 199.524 527.041 199.524 527.041C199.524 527.041 201.406 527.041 202.284 527.041C221.223 527.041 236.274 527.668 245.806 528.044C247.185 528.17 247.938 528.17 247.938 528.17L237.402 404.259Z" stroke="#8191A4" stroke-width="3" stroke-miterlimit="10"/>
<path d="M252.83 265.298H233.013H199.775H166.538H146.721L94.1677 362.621C94.1677 362.621 117.748 390.714 151.988 409.652L152.49 404.259H169.548H199.901H230.253H247.311L247.813 409.652C281.928 390.714 305.633 362.621 305.633 362.621L252.83 265.298Z" stroke="#8191A4" stroke-width="3" stroke-miterlimit="10"/>
<path d="M305.257 362.621L309.772 357.479L251.199 250.248L249.443 257.522L252.83 265.298L305.257 362.621Z" stroke="#8191A4" stroke-width="3" stroke-miterlimit="10"/>
<path d="M270.264 175.375L274.277 159.823C283.684 171.863 309.772 207.481 309.772 241.344C309.772 273.199 293.844 299.16 284.688 311.451L277.789 298.784C277.789 298.784 298.108 273.952 298.108 240.967C298.108 207.858 270.515 175.626 270.264 175.375Z" stroke="#8191A4" stroke-width="3" stroke-miterlimit="10"/>
<path d="M251.199 250.248L270.263 175.375C270.263 175.375 298.108 207.983 298.108 240.967C298.108 274.077 277.789 298.784 277.789 298.784L253.08 253.634L251.199 250.248Z" stroke="#8191A4" stroke-width="3" stroke-miterlimit="10"/>
<path d="M387.034 232.063C375.369 269.938 357.057 306.434 333.477 338.415C308.016 373.03 277.789 400.622 248.063 416.424L247.436 409.652C297.355 382.06 359.189 312.078 384.525 218.142L387.034 232.063Z" stroke="#8191A4" stroke-width="3" stroke-miterlimit="10"/>
<path d="M291.084 93.7293L249.067 259.027H240.287L284.562 84.9502C285.942 88.3364 288.325 91.0956 291.084 93.7293Z" stroke="#8191A4" stroke-width="3" stroke-miterlimit="10"/>
<path d="M282.932 76.5474H199.775H116.493C116.493 79.8082 115.866 82.5673 114.863 84.9502L159.138 259.027H199.65H240.162L284.437 84.9502C283.433 82.5673 282.932 79.8082 282.932 76.5474Z" stroke="#8191A4" stroke-width="3" stroke-miterlimit="10"/>
<path d="M283.182 3.17908L290.708 3.30449C290.457 18.6052 290.457 67.0157 290.457 76.5473C290.457 80.1844 291.46 82.6927 293.342 85.0756C294.721 86.9568 296.603 88.7126 298.986 90.8447C307.891 99.2476 321.186 111.789 329.715 149.414C332.725 162.708 349.532 242.598 355.427 291.635L349.156 302.797L348.529 297.655C343.261 249.621 325.325 164.589 322.315 150.919C314.288 115.552 302.498 104.264 293.718 96.1122C292.84 95.2343 291.837 94.3564 290.959 93.4784C288.199 90.8447 285.942 88.0856 284.437 84.6993C283.433 82.3164 282.806 79.5573 282.806 76.2965C282.932 63.1278 282.932 18.1036 283.182 3.17908Z" stroke="#8191A4" stroke-width="3" stroke-miterlimit="10"/>
</g>
</svg>
