<svg width="34" height="56" viewBox="0 0 34 56" fill="none" xmlns="http://www.w3.org/2000/svg">
<g clip-path="url(#clip0)">
<path d="M11.5009 14.2113C9.58654 14.7219 7.94185 16.4583 7.42957 18.7692C6.86336 21.3865 7.95533 23.9017 9.95053 24.9103L6.86336 28.9065C4.63899 25.4082 3.11563 22.3185 2.63031 21.361C2.61683 21.3737 2.60335 21.3865 2.58987 21.412L11.0155 11.8748L11.5009 14.2113ZM23.9843 24.8975C25.9795 23.8889 27.0715 21.3865 26.5053 18.7564C26.0065 16.4583 24.3618 14.7092 22.434 14.1985L22.9193 11.8621L31.345 21.3993C31.3315 21.3865 31.318 21.361 31.3045 21.3482C30.8192 22.3058 29.2959 25.3955 27.0715 28.8937L23.9843 24.8975ZM31.3989 21.4759L31.3854 21.4631L31.3989 21.4759ZM2.53594 21.4503L2.52246 21.4631L2.53594 21.4503Z" stroke="white" stroke-width="2" stroke-miterlimit="10"/>
<path d="M11.0154 11.862L13.1319 22.0631H14.0756L11.7703 11.0066L11.0154 11.862Z" stroke="white" stroke-width="2" stroke-miterlimit="10"/>
<path d="M11.5278 10.1768L11.0964 10.6619L10.8268 10.9683L2.40112 20.3013L2.52245 21.5014L11.0155 11.8876L11.7839 11.0194L12.094 10.6747C12.0805 10.6492 11.9592 10.3938 11.5278 10.1768Z" stroke="white" stroke-width="2" stroke-miterlimit="10"/>
<path d="M7.80708 9.35962C4.5177 9.35962 3.66839 10.381 3.66839 10.6491C3.66839 10.8406 2.8056 14.3134 2.45509 17.2243C2.3068 18.4245 2.25288 19.5352 2.37421 20.2757L10.7999 10.9428L11.0695 10.6364L11.5009 10.1512C11.5278 10.1767 10.328 9.35962 7.80708 9.35962Z" stroke="white" stroke-width="2" stroke-miterlimit="10"/>
<path d="M13.132 22.0631L12.9163 21.0417L6.84985 28.8937C7.02511 29.1618 7.20036 29.4427 7.37561 29.7108L13.132 22.0631Z" stroke="white" stroke-width="2" stroke-miterlimit="10"/>
<path d="M8.18446 18.9096C8.61585 16.9435 10.0314 15.4624 11.6761 15.0539L11.5008 14.2112C9.58649 14.7219 7.9418 16.4583 7.42952 18.7692C6.86331 21.3865 7.95528 23.9017 9.95048 24.9103L10.5032 24.1953C8.69674 23.391 7.68566 21.2078 8.18446 18.9096Z" stroke="white" stroke-width="2" stroke-miterlimit="10"/>
<path d="M8.18438 18.9096C7.68559 21.2078 8.69667 23.391 10.5031 24.1826L12.9297 21.0418L11.676 15.0539C10.0313 15.4624 8.61578 16.9435 8.18438 18.9096Z" stroke="white" stroke-width="2" stroke-miterlimit="10"/>
<path d="M2.21226 22.4717C2.21226 22.4589 2.22575 22.4589 2.22575 22.4462C2.22575 22.4462 2.22575 22.4462 2.22575 22.4334C2.22575 22.4206 2.23923 22.4206 2.23923 22.4079C2.25271 22.3951 2.25271 22.3951 2.26619 22.3823C2.27967 22.3696 2.29315 22.3696 2.30663 22.3696C2.44144 22.3568 2.57625 22.7143 2.63018 22.9058C2.64366 22.9569 2.65714 22.9952 2.65714 23.0207C2.65714 23.0335 2.65714 23.0335 2.65714 23.0335C5.6769 30.2598 9.53248 34.9965 12.4714 37.8564L12.5657 36.6818H12.9027C11.5951 35.3412 10.1122 33.6431 8.6697 31.6004C8.21134 30.962 7.77994 30.3236 7.37551 29.698C7.20026 29.4172 7.01152 29.149 6.84975 28.8809C4.62538 25.3827 3.10202 22.293 2.6167 21.3354C2.57625 21.3737 2.50885 21.4631 2.50885 21.4631L2.46841 21.029C2.46841 21.029 2.32011 21.9355 2.1853 22.5228C2.1853 22.51 2.19878 22.51 2.19878 22.4972C2.19878 22.4845 2.19878 22.4845 2.21226 22.4717C2.21226 22.4845 2.21226 22.4845 2.21226 22.4717Z" stroke="white" stroke-width="2" stroke-miterlimit="10"/>
<path d="M12.5928 36.6946L11.6086 49.0406H12.6871L13.6712 36.6946H12.5928Z" stroke="white" stroke-width="2" stroke-miterlimit="10"/>
<path d="M11.7029 46.9978C7.88776 47.3042 4.868 49.9854 4.04565 50.777C4.1535 50.9302 4.31528 51.16 4.5849 51.4153C5.6499 50.445 8.33263 48.3001 11.6625 47.9171L11.7029 46.9978Z" stroke="white" stroke-width="2" stroke-miterlimit="10"/>
<path d="M2.6707 23.0463C2.65722 23.0207 2.65722 22.9697 2.63026 22.9186C2.57633 22.7271 2.44152 22.3568 2.30671 22.3824C2.29323 22.3824 2.27975 22.3951 2.26627 22.3951C2.25279 22.3951 2.25279 22.4079 2.23931 22.4207C2.23931 22.4207 2.22582 22.4334 2.22582 22.4462C2.22582 22.4462 2.22582 22.4462 2.22582 22.459C2.22582 22.459 2.21234 22.4717 2.21234 22.4845C2.21234 22.4845 2.21234 22.4973 2.19886 22.4973C2.19886 22.4973 2.19886 22.51 2.18538 22.5228C2.18538 22.5356 2.1719 22.5356 2.1719 22.5483C2.13146 22.6377 2.1045 22.7526 2.06405 22.9314C1.34956 26.8382 -0.133362 32.7622 0.109297 39.4779C0.351956 46.1935 1.96968 49.7939 3.81659 51.0196C3.81659 51.0196 3.89748 50.9302 4.04577 50.7898C4.86811 49.9854 7.88787 47.317 11.703 47.0106H11.7704L12.4984 37.8819C9.54604 35.0221 5.69046 30.2726 2.6707 23.0463Z" stroke="white" stroke-width="2" stroke-miterlimit="10"/>
<path d="M31.8975 0.945939C31.4122 0.626755 30.3472 0.0777588 28.716 0.0777588C26.8961 0.0777588 25.1705 1.23959 24.5773 1.68645C24.429 1.80135 24.3212 1.99286 24.2538 2.20991C23.9437 3.2696 22.9461 6.41037 22.1642 7.32962C21.2071 8.44038 20.5195 9.34686 16.974 9.34686C13.4285 9.34686 12.7275 8.44038 11.7703 7.32962C10.9749 6.41037 9.99081 3.2696 9.68075 2.20991C9.61334 1.99286 9.49202 1.78859 9.35721 1.68645C8.75056 1.23959 7.03846 0.0777588 5.20504 0.0777588C3.58731 0.0777588 2.50882 0.626755 2.0235 0.945939C1.83477 1.07361 1.79433 1.31619 1.91566 1.57154C2.18528 2.24821 3.68168 9.98523 3.68168 10.6491C3.68168 10.381 4.5175 9.35963 7.82036 9.35963C10.3413 9.35963 11.5411 10.1767 11.5411 10.1767C11.9725 10.4066 12.0939 10.6619 12.0939 10.6619H16.0303H16.974H17.9177H21.8542C21.8542 10.6619 21.9755 10.4066 22.4069 10.1767C22.4069 10.1767 23.6067 9.35963 26.1277 9.35963C29.417 9.35963 30.2663 10.381 30.2663 10.6491C30.2663 9.98523 31.7493 2.24821 32.0324 1.57154C32.1132 1.31619 32.0863 1.07361 31.8975 0.945939Z" stroke="white" stroke-width="2" stroke-miterlimit="10"/>
<path d="M22.9191 11.862L20.7891 22.0631H19.8455L22.1507 11.0066L22.9191 11.862Z" stroke="white" stroke-width="2" stroke-miterlimit="10"/>
<path d="M21.8409 10.6491H17.9044H16.9607H16.017H12.0806L11.7705 11.0066L14.0758 22.0631H16.017H16.9607H17.9044H19.8457L22.1509 11.0066L21.8409 10.6491Z" stroke="white" stroke-width="2" stroke-miterlimit="10"/>
<path d="M22.3936 10.1768L22.825 10.6619L23.0946 10.9683L31.5203 20.3013L31.3989 21.5014L22.9059 11.8876L22.1375 11.0194L21.8274 10.6747C21.8409 10.6492 21.9622 10.3938 22.3936 10.1768Z" stroke="white" stroke-width="2" stroke-miterlimit="10"/>
<path d="M26.1142 9.35962C29.4036 9.35962 30.2529 10.381 30.2529 10.6491C30.2529 10.8406 31.1157 14.3134 31.4662 17.2243C31.6145 18.4245 31.6684 19.5352 31.5471 20.2757L23.1214 10.9428L22.8518 10.6364L22.4204 10.1512C22.3934 10.1767 23.5932 9.35962 26.1142 9.35962Z" stroke="white" stroke-width="2" stroke-miterlimit="10"/>
<path d="M20.7893 22.0632H16.9607H13.1321L7.38916 29.7108C7.80707 30.3364 8.23847 30.9748 8.68334 31.6132C10.1258 33.6432 11.6087 35.354 12.9164 36.6946H16.9607H21.005C22.3127 35.354 23.7956 33.6559 25.2381 31.6132C25.6964 30.9748 26.1278 30.3364 26.5323 29.7108L20.7893 22.0632Z" stroke="white" stroke-width="2" stroke-miterlimit="10"/>
<path d="M20.7893 22.0631L21.005 21.0417L27.0715 28.8937C26.8962 29.1618 26.721 29.4427 26.5457 29.7108L20.7893 22.0631Z" stroke="white" stroke-width="2" stroke-miterlimit="10"/>
<path d="M25.7367 18.9096C25.3053 16.9435 23.8898 15.4624 22.2451 15.0539L22.4204 14.2112C24.3347 14.7219 25.9794 16.4583 26.4917 18.7692C27.0579 21.3865 25.9659 23.9017 23.9707 24.9103L23.418 24.1953C25.2244 23.391 26.2355 21.2078 25.7367 18.9096Z" stroke="white" stroke-width="2" stroke-miterlimit="10"/>
<path d="M25.7368 18.9096C26.2356 21.2078 25.2245 23.391 23.418 24.1826L20.9915 21.0418L22.2452 15.0539C23.8899 15.4624 25.3054 16.9435 25.7368 18.9096Z" stroke="white" stroke-width="2" stroke-miterlimit="10"/>
<path d="M31.709 22.4717C31.709 22.4589 31.6956 22.4589 31.6956 22.4462C31.6956 22.4462 31.6956 22.4462 31.6956 22.4334C31.6956 22.4206 31.6821 22.4206 31.6821 22.4079C31.6686 22.3951 31.6686 22.3951 31.6551 22.3823C31.6416 22.3696 31.6282 22.3696 31.6147 22.3696C31.4799 22.3568 31.3451 22.7143 31.2911 22.9058C31.2777 22.9569 31.2642 22.9952 31.2642 23.0207C31.2642 23.0335 31.2642 23.0335 31.2642 23.0335C28.2444 30.2598 24.3888 34.9965 21.4499 37.8564L21.3556 36.6818H21.0186C22.3262 35.3412 23.8091 33.6431 25.2516 31.6004C25.71 30.962 26.1414 30.3236 26.5458 29.698C26.721 29.4172 26.9098 29.149 27.0716 28.8809C29.2959 25.3827 30.8193 22.293 31.3046 21.3354C31.3451 21.3737 31.4125 21.4631 31.4125 21.4631L31.4529 21.029C31.4529 21.029 31.6012 21.9355 31.736 22.5228C31.736 22.51 31.7225 22.51 31.7225 22.4972C31.7225 22.4845 31.7225 22.4845 31.709 22.4717C31.709 22.4845 31.709 22.4845 31.709 22.4717Z" stroke="white" stroke-width="2" stroke-miterlimit="10"/>
<path d="M21.3285 36.6946L22.3126 49.0406H21.2341L20.25 36.6946H21.3285Z" stroke="white" stroke-width="2" stroke-miterlimit="10"/>
<path d="M20.2499 36.6946H18.039H16.9605H15.882H13.6711L12.687 49.0406H15.882H16.9605H18.039H21.234L20.2499 36.6946Z" stroke="white" stroke-width="2" stroke-miterlimit="10"/>
<path d="M22.2183 46.9978C26.0334 47.3042 29.0532 49.9854 29.8755 50.777C29.7677 50.9302 29.6059 51.16 29.3363 51.4153C28.2713 50.445 25.5885 48.3001 22.2587 47.9171L22.2183 46.9978Z" stroke="white" stroke-width="2" stroke-miterlimit="10"/>
<path d="M31.2505 23.0463C31.264 23.0207 31.264 22.9697 31.2909 22.9186C31.3449 22.7271 31.4797 22.3568 31.6145 22.3824C31.628 22.3824 31.6415 22.3951 31.6549 22.3951C31.6684 22.3951 31.6684 22.4079 31.6819 22.4207C31.6819 22.4207 31.6954 22.4334 31.6954 22.4462C31.6954 22.4462 31.6954 22.4462 31.6954 22.459C31.6954 22.459 31.7089 22.4717 31.7089 22.4845C31.7089 22.4845 31.7089 22.4973 31.7223 22.4973C31.7223 22.4973 31.7223 22.51 31.7358 22.5228C31.7358 22.5356 31.7493 22.5356 31.7493 22.5483C31.7897 22.6377 31.8167 22.7526 31.8571 22.9314C32.5986 26.8509 34.068 32.775 33.8254 39.4906C33.5827 46.2063 31.965 49.8067 30.1181 51.0323C30.1181 51.0323 30.0372 50.9429 29.8889 50.8025C29.0666 49.9982 26.0468 47.3298 22.2317 47.0234H22.1643L21.4363 37.8947C24.3752 35.022 28.2307 30.2726 31.2505 23.0463Z" stroke="white" stroke-width="2" stroke-miterlimit="10"/>
<path d="M26.3705 52.7048C25.8582 52.7942 25.2785 52.8453 24.6045 52.8708C20.6815 52.9857 17.7291 52.9474 16.9742 52.9474C16.2058 52.9474 13.2669 52.9857 9.3439 52.8708C8.66985 52.8453 8.09016 52.7942 7.57788 52.7048C8.71029 54.4157 10.328 55.2328 11.3121 55.4754C12.2963 55.7179 14.6959 55.9222 16.9877 55.9222C19.2794 55.9222 21.6791 55.7179 22.6632 55.4754C23.6204 55.2328 25.2381 54.4157 26.3705 52.7048Z" stroke="white" stroke-width="2" stroke-miterlimit="10"/>
<path d="M22.2721 47.9298L22.326 49.0533H22.016H16.9741H11.9187H11.6086L11.6625 47.9298C8.3327 48.3128 5.64997 50.4578 4.58496 51.4281C5.08376 51.9005 5.96003 52.4367 7.56428 52.7048C8.07656 52.7942 8.65624 52.8453 9.3303 52.8708C13.2533 52.9857 16.2056 52.9474 16.9606 52.9474C17.729 52.9474 20.6679 52.9857 24.5909 52.8708C25.2649 52.8453 25.8446 52.7942 26.3569 52.7048C27.9611 52.4367 28.8374 51.8877 29.3362 51.4281C28.2847 50.4578 25.6019 48.3128 22.2721 47.9298Z" stroke="white" stroke-width="2" stroke-miterlimit="10"/>
<path d="M8.97974 1.41833C8.97974 1.41833 9.41113 3.09086 9.90993 5.77201C10.4087 8.45315 10.7727 9.81926 10.7727 9.81926" stroke="white" stroke-width="2" stroke-miterlimit="10"/>
<path d="M24.928 1.41833C24.928 1.41833 24.4966 3.09086 23.9978 5.77201C23.499 8.45315 23.135 9.81926 23.135 9.81926" stroke="white" stroke-width="2" stroke-miterlimit="10"/>
</g>
<defs>
<clipPath id="clip0">
<rect width="34" height="56" fill="white"/>
</clipPath>
</defs>
</svg>
