<svg width="28" height="22" viewBox="0 0 28 22" fill="none" xmlns="http://www.w3.org/2000/svg">
<path d="M2.2 0C1.61652 0 1.05695 0.231785 0.644365 0.644365C0.231785 1.05695 0 1.61652 0 2.2V15.4C0 15.9835 0.231785 16.5431 0.644365 16.9556C1.05695 17.3682 1.61652 17.6 2.2 17.6H8.6C9.15228 17.6 9.6 18.0477 9.6 18.6V20.9C9.6 21.1917 9.71589 21.4715 9.92218 21.6778C10.1285 21.8841 10.4083 22 10.7 22H11.25C11.525 22 11.8 21.89 12.02 21.681L15.7969 17.8938C15.9846 17.7057 16.2393 17.6 16.505 17.6H25.8C26.3835 17.6 26.9431 17.3682 27.3556 16.9556C27.7682 16.5431 28 15.9835 28 15.4V2.2C28 0.979 27.01 0 25.8 0H2.2ZM2.2 3.2C2.2 2.64771 2.64772 2.2 3.2 2.2H24.8C25.3523 2.2 25.8 2.64772 25.8 3.2V14.4C25.8 14.9523 25.3523 15.4 24.8 15.4H15.6022C15.337 15.4 15.0826 15.5054 14.8951 15.6929L13.494 17.094C12.8689 17.7191 11.8 17.2764 11.8 16.3923C11.8 15.8443 11.3557 15.4 10.8077 15.4H3.2C2.64771 15.4 2.2 14.9523 2.2 14.4V3.2ZM14.209 3.85C13.23 3.85 12.449 4.048 11.855 4.444C11.25 4.84 10.5 6.259 11.5 6.259C3.12807 6.259 9.99607 6.259 12.4073 6.259C12.8488 6.259 13.1178 5.85669 13.45 5.566C13.67 5.412 13.912 5.335 14.209 5.335C14.55 5.335 14.847 5.423 15.045 5.621C15.243 5.808 15.342 6.05 15.342 6.38C15.342 6.688 15.254 6.963 15.1 7.194C14.913 7.436 14.682 7.634 14.396 7.788C13.824 8.14 13.45 8.448 13.219 8.712C13.168 8.77642 13.1229 8.84739 13.0838 8.92587C12.8378 9.42033 13.3477 9.9 13.9 9.9H14.3294C14.755 9.9 15.0637 9.53268 15.254 9.152C15.353 8.965 15.54 8.8 15.826 8.635C16.332 8.404 16.75 8.096 17.069 7.7C17.388 7.293 17.553 6.864 17.553 6.38C17.553 5.61 17.256 4.994 16.662 4.532C16.068 4.081 15.243 3.85 14.209 3.85ZM13.9 11C13.3477 11 12.9 11.4477 12.9 12V12.2C12.9 12.7523 13.3477 13.2 13.9 13.2H14.1C14.6523 13.2 15.1 12.7523 15.1 12.2V12C15.1 11.4477 14.6523 11 14.1 11H13.9Z" fill="rgba(255,255,255,.5)"/>
</svg>
