<svg width="44" height="56" viewBox="0 0 44 56" fill="none" xmlns="http://www.w3.org/2000/svg">
<g>
<g clip-path="url(#clip0)">
<path d="M15.9392 49.8286C15.9818 50.0572 16.0386 50.3 16.1095 50.6C16.3366 51.4857 16.365 51.6714 16.4786 51.8286C16.5921 51.9714 17.7276 53.6429 19.4166 54.5C21.1057 55.3572 22.1276 55.5572 23.3199 55.5572C24.1289 55.5572 24.8386 55.2 25.3495 54.8572L25.3637 54.8714C26.0592 55.2714 27.3934 56.1572 29.8205 55.8143C32.2476 55.4714 33.4824 54.3143 34.6889 53.2857C35.8953 52.2714 38.7199 48.1714 38.7199 48.1714C38.7199 48.1714 39.245 47.6143 39.7844 47.0143C40.0257 46.7429 40.4515 46.2429 40.8489 45.7857C40.8489 45.7857 41.516 45.0286 41.7857 44.6857C42.0553 44.3429 42.4244 43.7857 42.4244 43.7857C42.5521 43.5572 42.6941 43.3 42.8076 43.0143C43.2476 41.9572 43.5173 41.0286 43.347 39.5572C43.1766 38.1 42.7934 36.4714 42.6941 35.6C42.5947 34.7286 42.4102 33.0572 42.0695 31.6857C41.7289 30.3143 40.6644 25.2143 40.3805 24.5857C40.3805 24.5857 39.3444 21.2143 38.2941 18.3C37.2437 15.3857 34.8876 11.0143 34.8876 11.0143C34.8876 11.0143 34.2205 9.00002 33.8089 7.97145C33.4115 6.94287 32.7586 5.22859 32.2902 4.60002C32.2902 4.60002 32.5315 4.15716 32.1199 3.42859C31.7083 2.70002 30.2179 0.842875 28.5999 0.285732C26.9534 -0.285697 25.1224 0.342875 25.1224 0.342875H25.1083L24.4979 0.628589L24.1715 0.785732C24.1715 0.785732 21.2334 1.34287 19.1895 2.02859C17.1457 2.7143 14.8463 3.84287 14.8463 3.84287C14.8463 3.84287 14.3495 2.98573 12.8166 2.9143C11.2837 2.84287 9.21148 3.07145 6.9547 4.28573C4.91083 5.22859 3.12245 6.47145 2.66825 6.9143C1.81664 7.75716 0.184383 9.6143 0.0566406 12.3286H0.794705H1.27729H2.32761C2.356 12.3286 2.55471 12.3286 2.86696 12.3286C4.14438 12.3286 7.22438 12.3286 7.22438 12.3286C7.22438 12.3286 6.62825 10.9143 9.21148 8.52859C9.53793 8.78573 9.65148 9.1143 9.69406 9.57145C9.77922 10.4857 10.347 15.6572 10.5315 16.9143L10.9857 19.8572C10.9857 19.8572 11.6244 23.5 11.8657 24.9857C12.107 26.4714 12.7599 30.4286 12.9018 31.3C13.0437 32.1714 13.0295 32.0429 13.2566 33.3429C13.4837 34.6429 13.4554 34.5286 13.7534 36.1572C14.0515 37.7857 14.307 39.3286 14.5057 40.5572C14.7044 41.8 15.0734 44.1857 15.1728 44.8429C15.2721 45.5 15.4708 46.8572 15.6837 48.0714C15.7973 48.9143 15.8541 49.3572 15.9392 49.8286Z" stroke="white" stroke-miterlimit="22.9256" stroke-linejoin="bevel"/>
<path d="M10.9717 19.8714C10.9717 19.8714 11.6104 23.5143 11.8517 25C12.093 26.4857 12.7459 30.4428 12.8878 31.3143C13.0297 32.1857 13.0156 32.0571 13.2426 33.3571C13.4697 34.6571 13.4414 34.5428 13.7394 36.1714C14.0375 37.8 14.293 39.3428 14.4917 40.5714C14.6904 41.8143 15.0594 44.2 15.1588 44.8571C15.2581 45.5143 15.4568 46.8714 15.6697 48.0857C15.8826 49.3 15.8968 49.6857 16.1239 50.5714C16.351 51.4571 16.3794 51.6428 16.493 51.8C16.6065 51.9571 17.742 53.6143 19.431 54.4714C21.1201 55.3285 22.142 55.5285 23.3343 55.5285C24.5265 55.5285 25.4633 54.7714 25.9317 54.4143C26.4001 54.0571 27.493 53.1428 28.2026 52.5285C28.9123 51.9143 29.0968 51.7143 29.991 50.9428C31.2826 49.8714 31.9356 48.0143 33.9652 47.3571C33.9652 47.3571 34.4478 45.6571 34.2917 43.0143C34.1356 40.3571 33.7097 38.3143 33.7097 38.3143C33.7097 38.3143 28.7562 36.0143 26.0168 34.0714C23.2917 32.1285 22.6104 31.3143 18.6646 28.3143C14.7188 25.3143 10.9717 19.8714 10.9717 19.8714Z" stroke="white" stroke-miterlimit="10"/>
<path d="M7.33799 7.95717C7.36638 7.95717 7.38057 7.94288 7.40896 7.94288C5.66315 7.65717 3.95992 8.34288 2.83863 9.11431C1.70315 9.90002 1.27734 12.3429 1.27734 12.3429H2.32767C2.32767 9.12859 6.23089 8.18574 7.33799 7.95717Z" stroke="white" stroke-miterlimit="10"/>
<path d="M9.21151 8.52859C8.94183 8.32859 8.53022 8.17144 7.87731 8.02859C7.76377 8.00001 7.65022 7.98573 7.52248 7.95716C7.49409 7.95716 7.45151 7.94287 7.42312 7.94287C7.39473 7.94287 7.38054 7.95716 7.35215 7.95716C6.24506 8.18573 2.32764 9.1143 2.32764 12.3286C2.35602 12.3286 2.55473 12.3286 2.86699 12.3286C4.14441 12.3286 7.22441 12.3286 7.22441 12.3286C7.22441 12.3286 6.64248 10.9286 9.21151 8.52859Z" stroke="white" stroke-miterlimit="10"/>
<path d="M17.7844 20.1C17.5715 18.4572 16.8334 13.4715 16.5638 12.1286C16.2941 10.7857 15.3715 4.34288 12.3341 3.30003C9.29667 2.27145 3.50571 6.07145 2.65409 6.91431C1.80248 7.75717 0.170222 9.61431 0.0424805 12.3286H0.780545H1.27732C1.27732 12.3286 1.70313 9.88574 2.83861 9.11431C3.9599 8.34288 5.66313 7.65717 7.40893 7.94288C7.43732 7.94288 7.4799 7.95717 7.50829 7.95717C7.63603 7.98574 7.74958 8.00003 7.86313 8.0286C8.51603 8.17146 8.92764 8.3286 9.19732 8.5286C9.52377 8.78574 9.63732 9.11431 9.6799 9.57146C9.76506 10.4857 10.3328 15.6572 10.5173 16.9143C10.5173 16.9143 11.8657 19.4143 13.498 21.4C15.1302 23.3857 17.7702 26.5 18.7354 27.2429C18.7354 27.2429 17.9973 21.7286 17.7844 20.1Z" stroke="white" stroke-miterlimit="10"/>
<path d="M34.8735 11C34.8735 11 34.2064 8.98573 33.7948 7.95716C33.3832 6.92859 32.7445 5.2143 32.2761 4.58573C32.2761 4.58573 32.5174 4.14287 32.1058 3.4143C31.6942 2.67144 30.2039 0.828587 28.5858 0.271444C26.9677 -0.2857 25.1226 0.342872 25.1226 0.342872C25.1226 0.342872 30.1329 2.84287 31.3819 4.54287C32.631 6.24287 34.6748 10.6 34.8735 11Z" stroke="white" stroke-miterlimit="22.9256" stroke-linejoin="bevel"/>
<path d="M35.4981 19.6571L39.9123 25.7C39.9123 25.7 39.7703 23.9571 39.6994 23.6714C39.6284 23.3857 37.5987 17.8 36.6052 15.9714C35.6116 14.1428 32.7303 7.45711 31.6232 5.91426C30.5303 4.3714 27.7342 1.9714 24.4839 0.62854C24.569 0.714254 25.9032 1.55711 26.7549 2.6714C26.7549 2.6714 30.0052 4.78568 30.9987 7.8714C30.9987 7.8714 33.6387 9.98568 34.7174 13.5C35.7961 17 35.4981 19.6571 35.4981 19.6571Z" stroke="white" stroke-miterlimit="22.9256" stroke-linejoin="bevel"/>
<path d="M35.0012 19.0143L33.227 16.7572C33.227 16.7572 33.2554 16.0714 32.7018 13.2286C32.1483 10.3857 31.5947 9.21429 31.5947 9.21429C31.5947 9.21429 33.9367 11.5 34.5612 14.4857C35.1715 17.4857 35.0012 19.0143 35.0012 19.0143Z" stroke="white" stroke-miterlimit="22.9256" stroke-linejoin="bevel"/>
<path d="M28.5007 20.2571L32.7446 18.3571C32.7446 18.3571 31.8504 10.7 30.6297 8.22856C29.4091 5.75713 27.8762 4.05713 26.4994 3.12856C26.4994 3.12856 26.0452 2.42856 25.3213 1.77142C24.5975 1.11428 24.1717 0.785706 24.1717 0.785706C24.1717 0.785706 21.2336 1.34285 19.1897 2.02856C17.1175 2.72856 14.8181 3.85713 14.8181 3.85713C14.8181 3.85713 15.3859 4.44285 15.7407 5.21428C15.7407 5.21428 17.8697 4.95713 21.1342 7.95713C24.3988 10.9571 26.9962 16.2 28.5007 20.2571Z" stroke="white" stroke-miterlimit="22.9256" stroke-linejoin="bevel"/>
<path d="M38.0529 34.5429L38.578 34.1857C38.578 34.1857 39.3161 32.2 39.6283 29.8143C39.9406 27.4286 39.9264 26.3143 39.9264 26.3143C39.9264 26.3143 38.0245 23.6286 36.6619 21.6857C35.2993 19.7429 33.7238 17.9286 33.7238 17.9286L26.7974 21.0429C26.7974 21.0429 27.3509 25.7143 27.2799 28.1143C27.209 30.5143 26.9677 33.3572 26.9677 33.3572C26.9677 33.3572 29.1677 34.8143 30.0761 35.3143C30.9845 35.8143 33.3406 36.8572 33.3406 36.8572L34.2206 36.3572C34.2206 36.3572 35.4128 35.5429 36.1225 35.2714C36.7896 34.9857 38.0529 34.5429 38.0529 34.5429Z" stroke="white" stroke-miterlimit="22.9256" stroke-linejoin="bevel"/>
<path d="M43.3329 39.5428C43.1625 38.0857 42.7793 36.4571 42.68 35.5857C42.5806 34.7143 42.3961 33.0428 42.0554 31.6714C41.7148 30.3 40.6361 25.1857 40.3664 24.5714C40.3664 24.5714 40.6503 28.8143 40.338 30.6714C40.0258 32.5286 39.3445 35.3286 39.3445 35.3286C39.3445 35.3286 40.6787 37.8571 40.8064 39.1571C40.9058 40.2143 41.0335 42.1571 40.8632 43.6571C40.8632 43.6571 41.5729 43.6143 41.8 43.7286C42.0271 43.8428 42.0413 44.3143 42.0413 44.3143C42.2684 44.0143 42.5522 43.5428 42.7935 42.9714C43.2335 41.9428 43.489 41.0143 43.3329 39.5428Z" stroke="white" stroke-miterlimit="22.9256" stroke-linejoin="bevel"/>
<path d="M16.1523 6.08569C16.1523 6.08569 17.3588 9.07141 18.3381 15.9C19.3175 22.7428 20.0981 28.1143 20.0981 28.1143C20.0981 28.1143 21.4323 29.2143 22.8233 30.4143C24.2143 31.6143 26.5278 33.1714 26.5278 33.1714C26.5278 33.1714 26.911 30.9428 26.8543 28.6714C26.7975 26.4 26.7833 25.2428 26.7833 25.2428C20.4388 21.3 19.573 15.4 20.4814 8.51426C20.4814 8.51426 19.3743 7.24284 18.5085 6.85712C17.6285 6.48569 16.1523 6.08569 16.1523 6.08569Z" stroke="white" stroke-miterlimit="22.9256" stroke-linejoin="bevel"/>
<path d="M21.2902 9.5C21.2902 9.5 20.2683 14.7571 21.8012 18.3571C23.3483 21.9571 26.6838 24.0143 26.6838 24.0143C26.6838 24.0143 26.1444 17.1 26.0167 16.8143C25.8889 16.5286 22.7522 10.5857 21.2902 9.5Z" stroke="white" stroke-miterlimit="22.9256" stroke-linejoin="bevel"/>
<path d="M25.1084 0.342834C25.1084 0.342834 24.6259 0.55712 24.4839 0.628549C24.342 0.699977 24.1575 0.799977 24.1575 0.799977" stroke="white" stroke-miterlimit="22.9256" stroke-linejoin="bevel"/>
<path d="M16.1523 6.08572L15.7407 5.21429" stroke="white" stroke-miterlimit="22.9256" stroke-linejoin="bevel"/>
<path d="M14.8181 3.85717C14.8181 3.85717 14.3214 3.00002 12.7885 2.92859C11.2555 2.85717 9.18329 3.08574 6.92651 4.30002" stroke="white" stroke-miterlimit="22.9256" stroke-linejoin="bevel"/>
<path d="M33.2271 16.7571L33.3832 18.0286" stroke="white" stroke-miterlimit="22.9256" stroke-linejoin="bevel"/>
<path d="M33.7097 17.9143L33.2981 17.3857" stroke="white" stroke-miterlimit="22.9256" stroke-linejoin="bevel"/>
<path d="M27.5497 20.7C27.5497 20.7 26.3433 17.5286 26.0168 16.8286" stroke="white" stroke-miterlimit="22.9256" stroke-linejoin="bevel"/>
<path d="M26.7832 21.0429L26.3857 17.7429" stroke="white" stroke-miterlimit="22.9256" stroke-linejoin="bevel"/>
<path d="M26.6838 24.0286L26.769 25.2429" stroke="white" stroke-miterlimit="22.9256" stroke-linejoin="bevel"/>
<path d="M39.9124 25.7C39.9124 25.7 39.9124 26.1429 39.9124 26.3143" stroke="white" stroke-miterlimit="22.9256" stroke-linejoin="bevel"/>
<path d="M39.3304 35.3286L38.5781 34.1857" stroke="white" stroke-miterlimit="22.9256" stroke-linejoin="bevel"/>
<path d="M33.3123 36.8571L33.7097 38.3285" stroke="white" stroke-miterlimit="22.9256" stroke-linejoin="bevel"/>
<path d="M26.9537 33.3571L26.5137 33.1571" stroke="white" stroke-miterlimit="22.9256" stroke-linejoin="bevel"/>
<path d="M40.6786 44.6571L40.0967 44.9C40.0967 44.9 39.6993 45.0571 38.578 45.7571C37.4567 46.4429 34.8593 48 34.8593 48C34.8593 48 34.3909 48.2857 33.7096 48.7143C33.0283 49.1429 31.0554 50.8714 30.5444 51.3143C30.0335 51.7571 27.2231 54.1429 27.2231 54.1429C28.4154 54.1429 29.5083 52.6857 30.8283 52.1143C31.3251 51.9 32.1341 51.6143 33.3264 51.1429C34.5186 50.6714 36.0232 49.5714 37.2154 48.7571C38.4077 47.9286 41.7148 44.7571 41.7148 44.7571C41.1328 44.4429 40.6786 44.6571 40.6786 44.6571Z" stroke="white" stroke-miterlimit="22.9256" stroke-linejoin="bevel"/>
<path d="M39.9831 39.5C39.7844 36.9286 38.0528 34.5428 38.0528 34.5428C38.0528 34.5428 36.7896 34.9857 36.0941 35.2571C35.3986 35.5286 34.1921 36.3428 34.1921 36.3428C34.1921 36.3428 35.1715 39.2286 35.1857 42.0286C35.1999 44.8143 34.8592 47.9857 34.8592 47.9857C34.8592 47.9857 37.4567 46.4286 38.5779 45.7428C39.6992 45.0571 40.0967 44.8857 40.0967 44.8857C40.0967 44.8857 40.1818 42.0714 39.9831 39.5Z" stroke="white" stroke-miterlimit="22.9256" stroke-linejoin="bevel"/>
<path d="M42.0271 44.3429C42.0271 44.3429 42.0129 43.8714 41.7858 43.7572C41.5587 43.6429 40.849 43.6857 40.849 43.6857C40.8065 44.0429 40.7497 44.3714 40.6787 44.6571C40.6787 44.6571 41.1329 44.4572 41.7148 44.7429C41.7148 44.7286 41.8426 44.6 42.0271 44.3429Z" stroke="white" stroke-miterlimit="22.9256" stroke-linejoin="bevel"/>
<path d="M33.9651 47.3715L34.0786 48.4715" stroke="white" stroke-miterlimit="22.9256" stroke-linejoin="bevel"/>
<path d="M25.3496 54.8572C25.3496 54.8572 27.0954 54.7714 27.7057 54.5714C28.3161 54.3714 29.6077 53.4857 29.8348 53.3714C30.0619 53.2572 31.3535 52.7 32.5883 52.2572C33.8232 51.8143 35.9522 50.3572 37.0451 49.5286C38.1238 48.7 38.7057 48.1572 38.7057 48.1572C38.7057 48.1572 35.8812 52.2572 34.6748 53.2714C33.4683 54.2857 32.2335 55.4572 29.8064 55.8C27.3935 56.1572 26.0593 55.2714 25.3496 54.8572Z" stroke="white" stroke-miterlimit="22.9256" stroke-linejoin="bevel"/>
<path d="M41.7148 44.7286C41.7148 44.7286 40.2955 46.4 39.7703 47C39.2452 47.6 38.7058 48.1571 38.7058 48.1571" stroke="white" stroke-miterlimit="22.9256" stroke-linejoin="bevel"/>
<path d="M40.835 45.7857C40.835 45.7857 43.2763 46.3428 42.4672 48.3L43.915 45.7571C43.915 45.7571 44.0001 45.4428 43.8156 44.8428C43.6311 44.2428 42.3963 43.7857 42.3963 43.7857" stroke="white" stroke-miterlimit="22.9256" stroke-linejoin="bevel"/>
<path d="M39.7703 47.5714C39.7703 46.9429 40.3238 46.4429 40.9909 46.4429C41.6722 46.4429 42.2115 46.9572 42.2115 47.5714C42.2115 48.2 41.658 48.7 40.9909 48.7C40.3238 48.7143 39.7703 48.2 39.7703 47.5714Z" stroke="white" stroke-miterlimit="22.9256" stroke-linejoin="bevel"/>
<path d="M39.1033 47.7429C39.1033 47.7429 39.8413 49.1571 40.9484 49.1571C42.0555 49.1571 42.4671 48.3 42.4671 48.3" stroke="white" stroke-miterlimit="22.9256" stroke-linejoin="bevel"/>
<path d="M34.8735 11C34.8735 11 37.2297 15.3714 38.28 18.2857C39.3303 21.2 40.3665 24.5714 40.3665 24.5714" stroke="white" stroke-miterlimit="22.9256" stroke-linejoin="bevel"/>
<path d="M10.5173 16.9286L10.9715 19.8714" stroke="white" stroke-miterlimit="22.9256" stroke-linejoin="bevel"/>
<path d="M3.59106 43.1714C3.59106 43.1714 7.32397 43.2 9.9072 42.4143C12.4904 41.6286 14.4917 40.5857 14.4917 40.5857" stroke="white" stroke-miterlimit="22.9256" stroke-linejoin="bevel"/>
<path d="M5.66333 50.5143C5.66333 50.5143 8.95623 50.9286 11.213 50.8428C13.4698 50.7571 15.9536 49.8286 15.9536 49.8286" stroke="white" stroke-miterlimit="22.9256" stroke-linejoin="bevel"/>
<path d="M5.8335 51.4143C5.8335 51.4143 9.1264 51.8286 11.3832 51.7429C13.6399 51.6572 16.1238 50.7286 16.1238 50.7286" stroke="white" stroke-miterlimit="22.9256" stroke-linejoin="bevel"/>
<path d="M31.5807 9.21426L30.9988 7.85712" stroke="white" stroke-miterlimit="22.9256" stroke-linejoin="bevel"/>
<path d="M21.2903 9.5L20.467 8.51428" stroke="white" stroke-miterlimit="22.9256" stroke-linejoin="bevel"/>
<path d="M5.54974 43.1C5.54974 43.1143 5.54974 43.1143 5.54974 43.1H5.56393C6.85555 43.0143 8.54458 42.8286 9.90716 42.4143C12.4904 41.6286 14.4917 40.5857 14.4917 40.5857L14.2504 39.0857L13.6826 36.0143L13.5123 35.7286C13.5123 35.7286 12.1781 37.7714 9.69426 38.8571C7.21039 39.9429 5.28006 40.0714 5.28006 40.0714C5.28006 40.0714 5.22329 40.2429 5.33684 41.3C5.4078 41.9 5.46458 42.3857 5.50716 42.7L5.54974 43.1Z" stroke="white" stroke-miterlimit="22.9256" stroke-linejoin="bevel"/>
</g>
</g>
<defs>
<clipPath id="clip0">
<rect width="43.9716" height="55.9286" fill="white"/>
</clipPath>
</defs>
</svg>
