<svg width="37" height="56" viewBox="0 0 37 56" fill="none" xmlns="http://www.w3.org/2000/svg">
<g clip-path="url(#clip0)">
<path d="M23.4456 8.63994L25.3183 6.13892" stroke="white" stroke-linejoin="bevel"/>
<path d="M25.3181 6.13892L24.9217 6.36628C24.3928 6.62843 23.8972 6.95306 23.4454 7.33324V7.33324C23.1302 7.67958 22.9321 8.11674 22.8794 8.58245" stroke="white" stroke-linejoin="bevel"/>
<path d="M22.8794 8.5824L23.4454 8.63997" stroke="white" stroke-linejoin="bevel"/>
<path d="M20.4956 7.16337C20.6651 7.27575 21.1764 7.04838 21.6302 7.27575C22.084 7.50311 21.9145 8.41258 22.5952 8.52757C23.276 8.63994 23.0491 7.73048 23.4455 7.33324C23.8974 6.95306 24.393 6.62843 24.9218 6.36628V6.36628L25.3183 6.13892" stroke="white" stroke-linejoin="bevel"/>
<path d="M20.2116 2.89825C20.2116 2.89825 20.1282 4.15007 20.1386 5.19021C20.1386 5.19021 20.3264 7.04834 20.4959 7.16333" stroke="white" stroke-linejoin="bevel"/>
<path d="M25.3184 6.13891L20.2114 4.0116" stroke="white" stroke-linejoin="bevel"/>
<path d="M22.8718 13.0148C24.1545 13.8391 25.3942 14.7289 26.586 15.6804" stroke="white" stroke-linejoin="bevel"/>
<path d="M26.5859 15.6804C28.4117 17.0812 29.4394 18.1396 31.2417 20.4316" stroke="white" stroke-linejoin="bevel"/>
<path d="M31.2417 20.4211C32.2928 21.4299 34.429 23.9832 34.429 23.9832" stroke="white" stroke-linejoin="bevel"/>
<path d="M34.6272 24.8561C34.4816 25.2268 34.2906 25.5779 34.0586 25.9014" stroke="white" stroke-linejoin="bevel"/>
<path d="M31.299 29.6491C30.8921 30.1717 29.9949 29.5968 29.9949 29.5968" stroke="white" stroke-linejoin="bevel"/>
<path d="M29.9715 29.5968C29.9715 29.5968 26.865 27.9033 24.9219 26.9494" stroke="white" stroke-linejoin="bevel"/>
<path d="M24.9218 26.9495C22.9709 25.9982 20.7199 24.336 19.3428 24.2472" stroke="white" stroke-linejoin="bevel"/>
<path d="M19.3429 24.2471C17.7258 24.0093 16.2964 24.7698 15.1697 25.2246" stroke="white" stroke-linejoin="bevel"/>
<path d="M8.84448 18.0456C11.664 15.5289 14.9765 13.0252 17.1648 12.283" stroke="white" stroke-linejoin="bevel"/>
<path d="M17.1648 12.2832C17.5858 12.1805 18.0174 12.1278 18.4507 12.1262" stroke="white" stroke-linejoin="bevel"/>
<path d="M22.4309 12.8553C22.5639 12.8972 22.7152 12.9496 22.8769 13.015" stroke="white" stroke-linejoin="bevel"/>
<path d="M26.3433 25.6114C26.3433 25.6114 28.675 23.4396 29.301 22.1199" stroke="white" stroke-linejoin="bevel"/>
<path d="M29.3013 22.1224C29.3013 22.1224 32.7259 24.3046 34.0457 25.8727" stroke="white" stroke-linejoin="bevel"/>
<path d="M34.0457 25.8727C35.934 28.8284 36.0253 30.3939 35.7801 34.2042" stroke="white" stroke-linejoin="bevel"/>
<path d="M31.059 28.7736C29.2932 27.608 26.4971 25.6375 26.3433 25.614" stroke="white" stroke-linejoin="bevel"/>
<path d="M31.612 29.1995C31.5025 29.3485 31.3955 29.5001 31.2886 29.649" stroke="white" stroke-linejoin="bevel"/>
<path d="M23.4666 7.31494L25.3941 8.05453" stroke="white" stroke-linejoin="bevel"/>
<path d="M23.1899 7.88464L24.1889 8.26881" stroke="white" stroke-linejoin="bevel"/>
<path d="M21.7268 8.40735L23.8291 9.21228" stroke="white" stroke-linejoin="bevel"/>
<path d="M23.8289 9.21242C23.8592 9.22599 23.8921 9.233 23.9254 9.233C23.9586 9.233 23.9915 9.22599 24.0219 9.21242C24.0822 9.18482 24.1297 9.13524 24.1549 9.07373" stroke="white" stroke-linejoin="bevel"/>
<path d="M25.527 8.4047C25.541 8.37209 25.5482 8.33697 25.5482 8.30147C25.5482 8.26598 25.541 8.23085 25.527 8.19824C25.5139 8.1659 25.4944 8.13651 25.4698 8.11183C25.4451 8.08714 25.4158 8.06765 25.3835 8.0545" stroke="white" stroke-linejoin="bevel"/>
<path d="M20.2452 6.07617L19.1941 5.67371" stroke="white" stroke-linejoin="bevel"/>
<path d="M20.3678 6.80031L19.9453 6.64069" stroke="white" stroke-linejoin="bevel"/>
<path d="M21.7268 8.40733L19.5854 7.58411" stroke="white" stroke-linejoin="bevel"/>
<path d="M19.1942 5.67374C19.162 5.66006 19.1274 5.65302 19.0925 5.65302C19.0575 5.65302 19.0229 5.66006 18.9908 5.67374C18.9594 5.69008 18.9316 5.71266 18.9092 5.74011C18.8868 5.76755 18.8702 5.79927 18.8604 5.83336" stroke="white" stroke-linejoin="bevel"/>
<path d="M24.1553 9.06855L24.3352 8.59552" stroke="white" stroke-linejoin="bevel"/>
<path d="M24.335 8.59547C24.3567 8.53262 24.3537 8.46384 24.3266 8.40315C24.2994 8.34245 24.2502 8.2944 24.189 8.2688" stroke="white" stroke-linejoin="bevel"/>
<path d="M19.4392 7.25745L19.6192 6.78442" stroke="white" stroke-linejoin="bevel"/>
<path d="M19.4391 7.25745C19.4189 7.31962 19.4227 7.38713 19.4497 7.44663C19.4768 7.50614 19.5251 7.55334 19.5851 7.57889" stroke="white" stroke-linejoin="bevel"/>
<path d="M19.9454 6.64069C19.915 6.62713 19.8822 6.62012 19.8489 6.62012C19.8157 6.62012 19.7828 6.62713 19.7524 6.64069C19.6921 6.66829 19.6446 6.71788 19.6194 6.77938" stroke="white" stroke-linejoin="bevel"/>
<path d="M25.5272 8.40472L24.8308 10.2237" stroke="white" stroke-linejoin="bevel"/>
<path d="M22.5718 12.7064L24.781 10.3047" stroke="white" stroke-linejoin="bevel"/>
<path d="M24.7786 10.3048C24.8005 10.2814 24.8175 10.2538 24.8283 10.2236" stroke="white" stroke-linejoin="bevel"/>
<path d="M19.1942 5.67374C19.162 5.66006 19.1274 5.65302 19.0925 5.65302C19.0575 5.65302 19.0229 5.66006 18.9908 5.67374C18.9594 5.69008 18.9316 5.71266 18.9092 5.74011C18.8868 5.76755 18.8702 5.79927 18.8604 5.83336" stroke="white" stroke-linejoin="bevel"/>
<path d="M18.8605 5.84357L18.1484 7.70954" stroke="white" stroke-linejoin="bevel"/>
<path d="M18.1873 10.9502C18.1797 11.4245 18.3044 11.8915 18.5473 12.2987" stroke="white" stroke-linejoin="bevel"/>
<path d="M20.2452 6.07617L19.1941 5.67371" stroke="white" stroke-linejoin="bevel"/>
<path d="M19.1942 5.67374C19.162 5.66006 19.1274 5.65302 19.0925 5.65302C19.0575 5.65302 19.0229 5.66006 18.9908 5.67374C18.9594 5.69008 18.9316 5.71266 18.9092 5.74011C18.8868 5.76755 18.8702 5.79927 18.8604 5.83336" stroke="white" stroke-linejoin="bevel"/>
<path d="M18.8602 5.84357L18.1638 7.66249" stroke="white" stroke-linejoin="bevel"/>
<path d="M18.1903 11.0233L18.1484 7.75659" stroke="white" stroke-linejoin="bevel"/>
<path d="M18.1641 7.66254C18.1538 7.69288 18.1485 7.7247 18.1484 7.75674" stroke="white" stroke-linejoin="bevel"/>
<path d="M19.627 13.2813C19.9594 13.4404 20.3227 13.5243 20.6911 13.527" stroke="white" stroke-linejoin="bevel"/>
<path d="M22.1206 13.0984C22.3064 12.9731 22.4748 12.8237 22.6214 12.6541" stroke="white" stroke-linejoin="bevel"/>
<path d="M29.2307 27.5583L31.8833 23.9492" stroke="white" stroke-linejoin="bevel"/>
<path d="M31.8833 23.9492C31.8833 23.9492 31.899 23.9257 32.1441 24.101" stroke="white" stroke-linejoin="bevel"/>
<path d="M32.1338 24.1008C32.332 24.2498 29.5803 27.8092 29.5803 27.8092" stroke="white" stroke-linejoin="bevel"/>
<path d="M29.5802 27.8092C29.2307 27.7595 29.2307 27.5479 29.2307 27.5479" stroke="white" stroke-linejoin="bevel"/>
<path d="M30.8817 29.4138C30.8817 29.4138 28.0543 27.8955 28.3308 27.4094" stroke="white" stroke-linejoin="bevel"/>
<path d="M28.3306 27.4094C28.5053 27.1036 28.774 27.2055 29.113 27.446" stroke="white" stroke-linejoin="bevel"/>
<path d="M29.1211 27.4407C29.5723 27.7491 30.1644 28.2875 30.8321 28.4574" stroke="white" stroke-linejoin="bevel"/>
<path d="M30.832 28.4626L33.2342 25.0024" stroke="white" stroke-linejoin="bevel"/>
<path d="M33.2344 25.0025C33.2344 25.0025 32.3267 24.3831 31.719 23.8578" stroke="white" stroke-linejoin="bevel"/>
<path d="M31.719 23.8578C31.3825 23.5677 31.1374 23.309 31.1817 23.1992" stroke="white" stroke-linejoin="bevel"/>
<path d="M31.1816 23.1992C31.4425 22.5981 33.7899 24.6026 34.0846 24.8535" stroke="white" stroke-linejoin="bevel"/>
<path d="M34.0848 24.8535C34.2804 25.0155 31.0827 29.4635 30.8818 29.4138" stroke="white" stroke-linejoin="bevel"/>
<path d="M24.8723 25.9982C24.8723 25.9982 28.4743 23.2907 29.7967 19.1876" stroke="white" stroke-linejoin="bevel"/>
<path d="M29.7942 19.1876L30.3654 19.7443" stroke="white" stroke-linejoin="bevel"/>
<path d="M30.3652 19.7443C30.3652 19.7443 29.4497 23.403 25.4277 26.2778" stroke="white" stroke-linejoin="bevel"/>
<path d="M25.4279 26.2804L24.8723 25.9982" stroke="white" stroke-linejoin="bevel"/>
<path d="M15.0132 13.3284C15.0132 13.3284 20.6444 15.2152 22.5432 15.1577" stroke="white" stroke-linejoin="bevel"/>
<path d="M22.5432 15.1708L25.2793 15.2729" stroke="white" stroke-linejoin="bevel"/>
<path d="M25.2793 15.2727L26.1478 15.9496" stroke="white" stroke-linejoin="bevel"/>
<path d="M26.1478 15.9418C26.1478 15.9418 21.419 15.8398 20.1931 15.5367" stroke="white" stroke-linejoin="bevel"/>
<path d="M20.1932 15.5445C18.2024 15.061 16.2397 14.4677 14.3142 13.7674" stroke="white" stroke-linejoin="bevel"/>
<path d="M14.3142 13.7674L15.0132 13.331" stroke="white" stroke-linejoin="bevel"/>
<path d="M30.3651 19.7443C30.3651 19.7443 28.5028 17.8888 27.0239 16.65" stroke="white" stroke-linejoin="bevel"/>
<path d="M27.0241 16.65C25.793 15.6412 23.3021 13.7752 23.0334 13.5688" stroke="white" stroke-linejoin="bevel"/>
<path d="M23.0333 13.5688C22.7986 13.3806 22.2795 12.9808 22.2795 12.9808" stroke="white" stroke-linejoin="bevel"/>
<path d="M14.7056 24.647C14.7056 24.647 16.8574 23.6016 18.8188 23.4919" stroke="white" stroke-linejoin="bevel"/>
<path d="M18.8184 23.4919C20.4198 23.2907 24.9165 26.1471 25.8267 26.4581" stroke="white" stroke-linejoin="bevel"/>
<path d="M25.3181 6.13898L25.9284 0.0654297" stroke="white" stroke-linejoin="bevel"/>
<path d="M20.261 2.86961L20.5427 0.0654297" stroke="white" stroke-linejoin="bevel"/>
<path d="M15.9338 0.0654297H31.0643" stroke="white" stroke-linejoin="bevel"/>
<path d="M34.627 24.8561C34.6946 24.7079 34.7105 24.5413 34.6722 24.383C34.6338 24.2247 34.5435 24.0839 34.4158 23.9832" stroke="white" stroke-linejoin="bevel"/>
<path d="M1.13965 46.4088C1.64733 48.1618 2.56223 49.7694 3.80942 51.0999C5.0566 52.4304 6.6006 53.446 8.31495 54.0635" stroke="white" stroke-linejoin="bevel"/>
<path d="M16.3591 13.7622L19.2778 11.81" stroke="white" stroke-linejoin="bevel"/>
<path d="M21.6488 12.3823C21.4518 12.3623 21.2531 12.3922 21.0707 12.4694C20.8884 12.5466 20.7284 12.6685 20.6055 12.824" stroke="white" stroke-linejoin="bevel"/>
<path d="M20.1331 12.4267C20.0844 12.2403 19.9723 12.0767 19.8161 11.9641C19.66 11.8515 19.4695 11.797 19.2776 11.81" stroke="white" stroke-linejoin="bevel"/>
<path d="M19.5799 9.4762C19.2079 9.75397 18.9508 10.1591 18.8575 10.6145C18.7642 11.0698 18.8412 11.5437 19.0739 11.9459" stroke="white" stroke-linejoin="bevel"/>
<path d="M21.6483 9.34555C21.3282 9.16475 20.9627 9.08087 20.5961 9.10406C20.2294 9.12726 19.8773 9.25653 19.5825 9.47622" stroke="white" stroke-linejoin="bevel"/>
<path d="M22.6057 10.9972C22.6056 10.6618 22.517 10.3323 22.3489 10.0423C22.1808 9.75222 21.9391 9.51185 21.6484 9.34552" stroke="white" stroke-linejoin="bevel"/>
<path d="M21.7739 12.5679C22.0296 12.3942 22.239 12.1605 22.384 11.8872C22.529 11.614 22.6052 11.3093 22.606 10.9998" stroke="white" stroke-linejoin="bevel"/>
<path d="M19.9504 12.7351C20.1577 12.8259 20.3793 12.8791 20.6051 12.8921" stroke="white" stroke-linejoin="bevel"/>
<path d="M20.5974 12.824L20.8895 14.9696" stroke="white" stroke-linejoin="bevel"/>
<path d="M23.503 15.2074L21.6511 12.3823" stroke="white" stroke-linejoin="bevel"/>
<path d="M20.1333 12.4268L18.9048 14.4992" stroke="white" stroke-linejoin="bevel"/>
<path d="M5.67041 51.8342L6.27813 52.0903" stroke="white" stroke-linejoin="bevel"/>
<path d="M8.84445 18.0455C8.05502 18.8783 7.2995 19.7451 6.57788 20.6459" stroke="white" stroke-linejoin="bevel"/>
<path d="M6.57822 20.6459C6.17412 21.1496 5.80629 21.6814 5.47754 22.2374" stroke="white" stroke-linejoin="bevel"/>
<path d="M5.47748 22.2374C4.69848 23.5616 3.93166 24.8935 3.177 26.2333" stroke="white" stroke-linejoin="bevel"/>
<path d="M3.17679 26.2333C3.03497 26.488 2.90613 26.7496 2.79077 27.0174" stroke="white" stroke-linejoin="bevel"/>
<path d="M2.79085 27.0121C2.69957 27.2212 2.61089 27.4329 2.53003 27.6446" stroke="white" stroke-linejoin="bevel"/>
<path d="M2.5273 27.6446C2.26647 28.3241 1.99 29.0009 1.72656 29.6804" stroke="white" stroke-linejoin="bevel"/>
<path d="M1.72694 29.6804C1.57827 30.062 1.44525 30.4644 1.32788 30.8434" stroke="white" stroke-linejoin="bevel"/>
<path d="M1.3276 30.8381C1.13806 31.5002 0.956354 32.1649 0.782471 32.8322" stroke="white" stroke-linejoin="bevel"/>
<path d="M4.32715 42.6116C4.82234 43.4213 5.41349 44.1681 6.08772 44.8356" stroke="white" stroke-linejoin="bevel"/>
<path d="M6.08765 44.8356C6.54765 45.29 7.08576 45.6574 7.67607 45.9201" stroke="white" stroke-linejoin="bevel"/>
<path d="M7.67603 45.9201C8.40634 46.2477 9.1436 46.5569 9.88782 46.8479" stroke="white" stroke-linejoin="bevel"/>
<path d="M9.8877 46.8479C10.1185 46.9392 10.3556 47.0134 10.5971 47.07" stroke="white" stroke-linejoin="bevel"/>
<path d="M10.5974 47.07C11.0739 47.1798 11.5529 47.2791 12.0346 47.3679" stroke="white" stroke-linejoin="bevel"/>
<path d="M12.0344 47.3679C12.5222 47.4568 13.0151 47.5352 13.5055 47.6005" stroke="white" stroke-linejoin="bevel"/>
<path d="M13.5056 47.6005C14.1655 47.6869 14.8254 47.7445 15.4905 47.7732" stroke="white" stroke-linejoin="bevel"/>
<path d="M15.4902 47.773C16.2727 47.807 17.0552 47.8096 17.8533 47.773" stroke="white" stroke-linejoin="bevel"/>
<path d="M17.8535 47.7809C18.5649 47.7565 19.2728 47.669 19.9688 47.5195" stroke="white" stroke-linejoin="bevel"/>
<path d="M19.9688 47.5196C20.9413 47.3097 21.8996 47.0382 22.8378 46.7068" stroke="white" stroke-linejoin="bevel"/>
<path d="M22.8298 46.7067C23.4257 46.4959 24.0054 46.2417 24.5643 45.9462" stroke="white" stroke-linejoin="bevel"/>
<path d="M24.5647 45.9462C24.977 45.7249 25.3659 45.4622 25.7254 45.1622" stroke="white" stroke-linejoin="bevel"/>
<path d="M25.7251 45.1701C26.2567 44.7317 26.7269 44.2237 27.1231 43.6595" stroke="white" stroke-linejoin="bevel"/>
<path d="M27.1257 43.6595C27.5385 43.0692 27.8734 42.428 28.1221 41.7517" stroke="white" stroke-linejoin="bevel"/>
<path d="M28.1196 41.7517C28.2474 41.4068 28.3805 41.0592 28.4848 40.7064" stroke="white" stroke-linejoin="bevel"/>
<path d="M28.4846 40.709C28.7507 39.9145 29.0115 39.1175 29.2671 38.3177" stroke="white" stroke-linejoin="bevel"/>
<path d="M29.2646 38.3177C29.4159 37.8438 29.5559 37.3664 29.6846 36.8856" stroke="white" stroke-linejoin="bevel"/>
<path d="M29.6846 36.8856C29.8811 36.1469 30.0645 35.4038 30.2349 34.6564" stroke="white" stroke-linejoin="bevel"/>
<path d="M32.4309 33.0595L32.6135 31.8992" stroke="white" stroke-linejoin="bevel"/>
<path d="M32.6135 31.8992L32.6632 31.3843" stroke="white" stroke-linejoin="bevel"/>
<path d="M32.6633 31.3844L32.7366 30.2423" stroke="white" stroke-linejoin="bevel"/>
<path d="M34.6428 42.575L35.2375 40.9442" stroke="white" stroke-linejoin="bevel"/>
<path d="M35.2375 40.9442L35.3004 40.6254" stroke="white" stroke-linejoin="bevel"/>
<path d="M35.3 40.6253L35.6965 38.9841" stroke="white" stroke-linejoin="bevel"/>
<path d="M35.6963 38.9842C35.6976 38.9764 35.6976 38.9684 35.6963 38.9606" stroke="white" stroke-linejoin="bevel"/>
<path d="M35.6992 38.9606C35.6992 38.7986 35.6992 38.6366 35.6992 38.4745" stroke="white" stroke-linejoin="bevel"/>
<path d="M35.6969 38.4745C35.6939 38.2477 35.6737 38.0215 35.6367 37.7977" stroke="white" stroke-linejoin="bevel"/>
<path d="M35.6365 37.7976C35.5923 37.5243 35.5322 37.2538 35.4565 36.9875" stroke="white" stroke-linejoin="bevel"/>
<path d="M35.6782 35.1869C35.7252 34.8611 35.7591 34.5344 35.7799 34.2068" stroke="white" stroke-linejoin="bevel"/>
<path d="M35.5842 35.7592C35.6207 35.5676 35.652 35.3768 35.6781 35.1869" stroke="white" stroke-linejoin="bevel"/>
<path d="M35.4568 36.9875L34.5334 35.8402" stroke="white" stroke-linejoin="bevel"/>
<path d="M34.5332 35.8402L33.842 35.064" stroke="white" stroke-linejoin="bevel"/>
<path d="M33.8421 35.0641L31.9668 33.5509" stroke="white" stroke-linejoin="bevel"/>
<path d="M31.9666 33.5511C31.8941 33.4789 31.8043 33.4267 31.7058 33.3993" stroke="white" stroke-linejoin="bevel"/>
<path d="M31.7138 33.3993C31.417 33.3071 31.1136 33.2381 30.8062 33.1929" stroke="white" stroke-linejoin="bevel"/>
<path d="M35.5059 43.1891C35.6102 42.899 35.7119 42.6089 35.811 42.3136" stroke="white" stroke-linejoin="bevel"/>
<path d="M35.8113 42.3136C35.8687 42.1464 35.9208 41.9765 35.9704 41.804" stroke="white" stroke-linejoin="bevel"/>
<path d="M35.9705 41.8145C36.0487 41.5531 36.1243 41.2709 36.2 40.9991" stroke="white" stroke-linejoin="bevel"/>
<path d="M36.2 40.9886L36.4608 40.0321" stroke="white" stroke-linejoin="bevel"/>
<path d="M36.4583 40.0321C36.5236 39.7828 36.5595 39.5267 36.5652 39.269" stroke="white" stroke-linejoin="bevel"/>
<path d="M36.5653 39.269C36.5804 38.8102 36.5638 38.3509 36.5156 37.8943" stroke="white" stroke-linejoin="bevel"/>
<path d="M30.2741 34.4969L30.2349 34.654" stroke="white" stroke-linejoin="bevel"/>
<path d="M30.548 33.5378C30.4515 33.8567 30.3629 34.1781 30.2742 34.4996" stroke="white" stroke-linejoin="bevel"/>
<path d="M31.8545 29.3903C31.5937 29.1813 31.3328 28.9748 31.072 28.7736" stroke="white" stroke-linejoin="bevel"/>
<path d="M31.8547 29.3903C32.2173 29.7562 32.5877 30.109 32.9659 30.454" stroke="white" stroke-linejoin="bevel"/>
<path d="M34.2568 31.6222C33.8873 31.1632 33.447 30.7662 32.9526 30.4462" stroke="white" stroke-linejoin="bevel"/>
<path d="M35.8113 33.692C35.4796 32.8788 34.9398 32.1675 34.2463 31.63" stroke="white" stroke-linejoin="bevel"/>
<path d="M31.1423 32.9289C30.8944 33.0787 30.6895 33.2903 30.5476 33.543" stroke="white" stroke-linejoin="bevel"/>
<path d="M31.7188 32.8296C31.5217 32.7852 31.3152 32.819 31.1423 32.9238" stroke="white" stroke-linejoin="bevel"/>
<path d="M32.3267 33.0154C32.1295 32.9369 31.9263 32.8748 31.719 32.8296" stroke="white" stroke-linejoin="bevel"/>
<path d="M32.7492 33.2373C32.6169 33.1479 32.4752 33.0734 32.3267 33.0151" stroke="white" stroke-linejoin="bevel"/>
<path d="M33.357 33.6841C33.1614 33.5273 32.9579 33.3784 32.7493 33.2372" stroke="white" stroke-linejoin="bevel"/>
<path d="M34.3272 34.4969C34.0125 34.2199 33.6891 33.949 33.3569 33.6841" stroke="white" stroke-linejoin="bevel"/>
<path d="M35.4096 35.5632C35.0691 35.1876 34.7077 34.8317 34.3271 34.4969" stroke="white" stroke-linejoin="bevel"/>
<path d="M36.2287 36.5877C35.9791 36.2255 35.7055 35.8807 35.4097 35.5554" stroke="white" stroke-linejoin="bevel"/>
<path d="M36.3876 36.964C36.3614 36.8312 36.3072 36.7055 36.2285 36.5955" stroke="white" stroke-linejoin="bevel"/>
<path d="M36.5154 37.8943C36.5019 37.5795 36.4609 37.2664 36.3928 36.9587" stroke="white" stroke-linejoin="bevel"/>
<path d="M15.1802 25.2246C14.2166 25.6764 13.3281 26.274 12.5459 26.9965" stroke="white" stroke-linejoin="bevel"/>
<path d="M12.5456 26.9965C11.9318 27.4049 11.4117 27.9394 11.0198 28.5645" stroke="white" stroke-linejoin="bevel"/>
<path d="M11.0198 28.5645C10.4494 29.4008 9.87823 30.2397 9.30615 31.0812" stroke="white" stroke-linejoin="bevel"/>
<path d="M8.52637 32.4559C8.81136 32.0119 9.07255 31.553 9.30884 31.0812" stroke="white" stroke-linejoin="bevel"/>
<path d="M8.52645 32.4559C8.15608 33.0596 7.80658 33.6737 7.48315 34.2983" stroke="white" stroke-linejoin="bevel"/>
<path d="M6.37207 36.4074C6.77643 35.7246 7.14386 35.0206 7.47275 34.2983" stroke="white" stroke-linejoin="bevel"/>
<path d="M6.3721 36.4073C6.116 36.8379 5.91697 37.3 5.78003 37.782" stroke="white" stroke-linejoin="bevel"/>
<path d="M5.77986 37.782C5.35995 38.863 4.99776 39.9657 4.69482 41.0853" stroke="white" stroke-linejoin="bevel"/>
<path d="M4.69496 41.0853C4.11712 42.9201 3.95775 44.8614 4.2286 46.7661C4.49946 48.6708 5.19363 50.4903 6.25991 52.0904" stroke="white" stroke-linejoin="bevel"/>
<path d="M6.27808 52.0903C6.93014 52.4388 7.59177 52.762 8.26296 53.0599" stroke="white" stroke-linejoin="bevel"/>
<path d="M8.26318 53.0521C9.23172 53.4179 10.2055 53.7664 11.1844 54.0974" stroke="white" stroke-linejoin="bevel"/>
<path d="M11.1841 54.0975C12.1423 54.3292 13.1134 54.5038 14.0923 54.6202" stroke="white" stroke-linejoin="bevel"/>
<path d="M14.0847 54.6384C15.1078 54.7636 16.1371 54.83 17.1677 54.8373" stroke="white" stroke-linejoin="bevel"/>
<path d="M17.1755 54.8371C18.018 54.8371 18.8605 54.8136 19.6977 54.7482" stroke="white" stroke-linejoin="bevel"/>
<path d="M19.6975 54.7482C20.9425 54.6506 22.1823 54.5173 23.4169 54.3483" stroke="white" stroke-linejoin="bevel"/>
<path d="M23.4167 54.3588C24.8227 54.1646 26.1901 53.7529 27.47 53.1383" stroke="white" stroke-linejoin="bevel"/>
<path d="M27.4702 53.1279C28.6902 52.5446 29.8073 51.766 30.7775 50.8229" stroke="white" stroke-linejoin="bevel"/>
<path d="M30.7773 50.8229C31.2192 50.5221 31.6101 50.1524 31.9354 49.7278" stroke="white" stroke-linejoin="bevel"/>
<path d="M31.9329 49.7278C33.2792 47.5365 34.1987 45.1094 34.6428 42.575" stroke="white" stroke-linejoin="bevel"/>
<path d="M14.7053 24.647C13.718 25.1863 12.7806 25.8125 11.9041 26.5182" stroke="white" stroke-linejoin="bevel"/>
<path d="M11.9043 26.5182C11.3607 26.9557 10.8813 27.4677 10.4802 28.0392" stroke="white" stroke-linejoin="bevel"/>
<path d="M10.4799 28.0392C9.91825 28.8441 9.3653 29.6543 8.82104 30.4696" stroke="white" stroke-linejoin="bevel"/>
<path d="M8.82095 30.4697C8.62533 30.765 8.43754 31.0655 8.25757 31.3687" stroke="white" stroke-linejoin="bevel"/>
<path d="M8.25788 31.3608C7.7571 32.2128 7.27457 33.0752 6.8103 33.9481" stroke="white" stroke-linejoin="bevel"/>
<path d="M6.81015 33.9559C6.44151 34.6528 6.09375 35.3558 5.76685 36.065" stroke="white" stroke-linejoin="bevel"/>
<path d="M5.75895 36.0649C5.54259 36.5333 5.3519 37.0131 5.18774 37.5023" stroke="white" stroke-linejoin="bevel"/>
<path d="M5.18792 37.5023C4.82799 38.5912 4.495 39.688 4.18896 40.7926" stroke="white" stroke-linejoin="bevel"/>
<path d="M4.18909 40.7926C3.5019 42.6116 3.2775 44.5735 3.53614 46.5012C3.79478 48.4288 4.52832 50.2616 5.67058 51.8342" stroke="white" stroke-linejoin="bevel"/>
<path d="M6.27808 52.0903C7.3929 53.6582 9.04777 54.7568 10.9234 55.1741" stroke="white" stroke-linejoin="bevel"/>
<path d="M10.9233 55.1742C11.9236 55.4179 12.9374 55.602 13.9593 55.7256" stroke="white" stroke-linejoin="bevel"/>
<path d="M13.9595 55.7256C15.024 55.8566 16.0951 55.9264 17.1676 55.9347" stroke="white" stroke-linejoin="bevel"/>
<path d="M17.1675 55.927C18.0412 55.927 18.9124 55.9034 19.7757 55.8354" stroke="white" stroke-linejoin="bevel"/>
<path d="M19.7837 55.8432C21.0496 55.7439 22.3102 55.6071 23.5657 55.4329" stroke="white" stroke-linejoin="bevel"/>
<path d="M23.5657 55.4329C25.083 55.2258 26.5593 54.785 27.9423 54.1262" stroke="white" stroke-linejoin="bevel"/>
<path d="M27.9421 54.1184C29.2668 53.4808 30.4804 52.6337 31.5363 51.6095" stroke="white" stroke-linejoin="bevel"/>
<path d="M31.5364 51.6095C32.1698 51.0919 32.7006 50.4599 33.1013 49.7462" stroke="white" stroke-linejoin="bevel"/>
<path d="M33.0881 49.7461C34.1801 47.6772 34.9931 45.4723 35.506 43.1891" stroke="white" stroke-linejoin="bevel"/>
<path d="M0.782673 32.8322C-0.291033 37.3147 -0.169602 42.0013 1.13479 46.4219" stroke="white" stroke-linejoin="bevel"/>
<path d="M25.8269 26.4581L26.7476 26.8814" stroke="white" stroke-linejoin="bevel"/>
<path d="M26.7476 26.8815L28.3725 27.655" stroke="white" stroke-linejoin="bevel"/>
</g>
<defs>
<clipPath id="clip0">
<rect width="36.6355" height="56" fill="white"/>
</clipPath>
</defs>
</svg>
