<svg width="180" height="64" viewBox="0 0 180 64" fill="none" xmlns="http://www.w3.org/2000/svg">
<g clip-path="url(#clip0)">
<path fill-rule="evenodd" clip-rule="evenodd" d="M111.698 23.4711L107.133 43.8347H93.7707C92.613 40.6281 90.9592 35.438 90.0331 32.8926C89.6031 34.6446 88.9085 38.3802 87.5854 43.8347H74.3219L69.6913 23.5702C68.0044 11.8347 47.398 10.2479 31.6538 12C41.9074 11.6033 62.9107 13.9174 66.2845 21.5537C59.8677 15.9008 52.3594 19.0413 45.6781 18.2149C51.301 19.2066 53.914 19.0413 59.0408 19.5041C49.4157 22.9752 22.0287 18.843 15.5788 14.0826C23.8148 15.9008 37.0783 16.4959 45.1158 15.8017C31.5546 14.4463 10.5843 11.7025 0 3.40496C17.398 11.0744 77.4311 -0.363636 79.8787 23.0083L80.9702 30.281L82.0948 37.2893L89.9669 0L98.5005 37.8182C99.0628 32.8595 100.022 27.7686 101.411 23.0413C107.696 -3.27273 160.816 11.8678 180.033 3.40496C169.449 11.7355 144.807 14.7438 131.246 16.0661C139.283 16.7603 156.218 15.9008 164.454 14.0826C158.004 18.843 131.246 22.3802 121.588 19.5702C126.748 19.1074 127.938 19.5041 133.561 17.9174C126.681 19.405 121.521 15.9008 115.105 21.5537C118.479 13.9174 136.273 11.8017 146.527 12.1983C131.014 9.8843 113.98 12.4959 111.698 23.4711Z" fill="white"/>
<path fill-rule="evenodd" clip-rule="evenodd" d="M67.6738 30.0495H57.751V28.4958C57.751 27.7685 57.6187 27.3057 57.3541 27.1074C57.0895 26.909 56.6926 26.8099 56.0972 26.8099C55.4688 26.8099 54.9726 26.9421 54.6419 27.2066C54.3111 27.471 54.1457 27.8677 54.1457 28.3966C54.1457 29.0908 54.3111 29.6198 54.708 29.9834C55.0718 30.347 56.0641 30.7437 57.751 31.2396C62.514 32.6611 65.4908 33.8512 66.7477 34.7768C68.0046 35.7024 68.6 37.157 68.6 39.2065C68.6 40.6942 68.2692 41.7851 67.5746 42.4793C66.88 43.1735 65.557 43.7685 63.6055 44.2313C61.654 44.6942 59.3717 44.9586 56.7587 44.9586C53.9142 44.9586 51.4666 44.6942 49.4489 44.1322C47.4313 43.5702 46.1082 42.876 45.4798 42.0495C44.8513 41.19 44.5537 39.9999 44.5537 38.4462V37.0908H54.4765V39.6363C54.4765 40.4297 54.6088 40.9256 54.9065 41.157C55.2042 41.3884 55.7003 41.4875 56.3949 41.4875C57.0895 41.4875 57.6187 41.3553 57.9825 41.0578C58.3133 40.7603 58.5118 40.3636 58.5118 39.8016C58.5118 38.5785 58.181 37.7851 57.5195 37.3884C56.858 37.0247 55.1711 36.3966 52.525 35.5041C49.8458 34.6115 48.0928 33.9504 47.2328 33.5537C46.3728 33.157 45.6452 32.595 45.0829 31.8677C44.5206 31.1735 44.2229 30.2479 44.2229 29.157C44.2229 27.5702 44.6198 26.3801 45.4136 25.6528C46.2075 24.9256 47.4974 24.3305 49.3166 23.9338C51.1027 23.5041 53.2857 23.3057 55.8326 23.3057C58.611 23.3057 60.9925 23.5371 62.944 23.9999C64.8954 24.4627 66.1854 25.0247 66.8469 25.7189C67.4754 26.4132 67.8061 27.5702 67.8061 29.2231V30.0495H67.6738Z" fill="white"/>
<path fill-rule="evenodd" clip-rule="evenodd" d="M136.902 30.0495H126.979V28.4958C126.979 27.7685 126.847 27.3057 126.582 27.1074C126.318 26.909 125.921 26.8099 125.325 26.8099C124.697 26.8099 124.201 26.9421 123.87 27.2066C123.539 27.471 123.374 27.8677 123.374 28.3966C123.374 29.0908 123.539 29.6198 123.936 29.9834C124.3 30.347 125.292 30.7437 126.946 31.2396C131.709 32.6611 134.686 33.8512 135.943 34.7768C137.167 35.7024 137.795 37.157 137.795 39.2065C137.795 40.6942 137.464 41.7851 136.77 42.4793C136.075 43.1735 134.752 43.7685 132.801 44.2313C130.849 44.6942 128.567 44.9586 125.954 44.9586C123.076 44.9586 120.662 44.6942 118.644 44.1322C116.626 43.5702 115.303 42.876 114.675 42.0495C114.046 41.19 113.749 39.9999 113.749 38.4462V37.0908H123.672V39.6363C123.672 40.4297 123.804 40.9256 124.102 41.157C124.399 41.3884 124.895 41.4875 125.59 41.4875C126.285 41.4875 126.847 41.3553 127.178 41.0578C127.508 40.7603 127.707 40.3636 127.707 39.8016C127.707 38.5785 127.376 37.7851 126.715 37.3884C126.053 37.0247 124.366 36.3966 121.72 35.5041C119.074 34.6115 117.288 33.9504 116.428 33.5537C115.568 33.157 114.84 32.595 114.278 31.8677C113.716 31.1735 113.418 30.2479 113.418 29.157C113.418 27.5702 113.815 26.3801 114.642 25.6528C115.436 24.9256 116.726 24.3305 118.545 23.9338C120.331 23.5041 122.514 23.3057 125.028 23.3057C127.806 23.3057 130.188 23.5371 132.139 23.9999C134.091 24.4627 135.38 25.0247 136.042 25.7189C136.67 26.4132 137.001 27.5702 137.001 29.2231V30.0495H136.902Z" fill="white"/>
<path fill-rule="evenodd" clip-rule="evenodd" d="M27.8829 57.3223L29.9998 57.1239C30.1321 57.8181 30.3967 58.3471 30.7606 58.6776C31.1575 59.0082 31.6867 59.1735 32.3482 59.1735C33.0428 59.1735 33.572 59.0413 33.9359 58.7438C34.2997 58.4462 34.4651 58.1157 34.4651 57.6859C34.4651 57.4214 34.3989 57.2231 34.2335 57.0247C34.0682 56.8595 33.8366 56.6942 33.4397 56.5619C33.1751 56.4628 32.6128 56.3305 31.6867 56.0991C30.529 55.8016 29.7021 55.438 29.2391 55.0413C28.5775 54.4462 28.2468 53.719 28.2468 52.8595C28.2468 52.2975 28.4122 51.8016 28.7098 51.3057C29.0075 50.8429 29.4706 50.4793 30.066 50.2148C30.6613 49.9504 31.3559 49.8512 32.1828 49.8512C33.5389 49.8512 34.5643 50.1487 35.2258 50.7438C35.9204 51.3388 36.2843 52.1322 36.3173 53.1239L34.1343 53.2231C34.0351 52.6611 33.8366 52.2644 33.5389 52.033C33.2413 51.8016 32.7782 51.6694 32.1497 51.6694C31.5213 51.6694 31.0252 51.8016 30.6613 52.0661C30.4298 52.2314 30.3306 52.4628 30.3306 52.7272C30.3306 52.9917 30.4298 53.19 30.6613 53.3884C30.9259 53.6198 31.5875 53.8512 32.679 54.1157C33.7374 54.3801 34.5312 54.6115 35.0274 54.876C35.5235 55.1405 35.9204 55.5041 36.2181 55.9669C36.5158 56.4297 36.6481 56.9917 36.6481 57.6859C36.6481 58.314 36.4827 58.876 36.1189 59.438C35.7881 59.9669 35.292 60.3966 34.6635 60.6281C34.0351 60.8925 33.2413 61.0247 32.3151 61.0247C30.959 61.0247 29.9006 60.6942 29.1729 60.0661C28.4452 59.438 28.0152 58.5123 27.8829 57.3223Z" fill="white"/>
<path fill-rule="evenodd" clip-rule="evenodd" d="M38.4014 60.8264V50.0495H40.4521V55.7685L42.8666 53.0247H45.4135L42.7674 55.8677L45.6119 60.8264H43.3958L41.4113 57.3222L40.4521 58.314V60.8264H38.4014Z" fill="white"/>
<path fill-rule="evenodd" clip-rule="evenodd" d="M45.8765 53.0247H48.0926L49.978 58.5784L51.7972 53.0247H53.9471L51.2018 60.5289L50.7056 61.8842C50.5072 62.347 50.3418 62.6776 50.1764 62.9421C50.011 63.1735 49.8126 63.3718 49.6141 63.5371C49.4157 63.6693 49.1511 63.8016 48.8203 63.9008C48.5226 63.9999 48.1588 64.033 47.7619 64.033C47.3649 64.033 46.968 63.9999 46.6042 63.9008L46.4057 62.2809C46.7365 62.347 47.0342 62.3801 47.2657 62.3801C47.7619 62.3801 48.0926 62.2479 48.3242 61.9503C48.5557 61.6528 48.7211 61.3222 48.8534 60.8594L45.8765 53.0247Z" fill="white"/>
<path fill-rule="evenodd" clip-rule="evenodd" d="M56.7915 60.8264L54.2115 50.0495H56.4276L58.0484 57.4545L60.0329 50.0495H62.6129L64.4982 57.5867L66.1851 50.0495H68.3681L65.7551 60.8264H63.4398L61.2898 52.7602L59.1399 60.8264H56.7915Z" fill="white"/>
<path fill-rule="evenodd" clip-rule="evenodd" d="M69.3273 53.0247H71.4111V60.8264H69.3273V53.0247ZM69.3273 50.0495H71.4111V51.9669H69.3273V50.0495Z" fill="white"/>
<path fill-rule="evenodd" clip-rule="evenodd" d="M75.1487 56.7602C75.1487 57.5866 75.2479 58.1816 75.4794 58.5783C75.8102 59.1073 76.2733 59.3717 76.8686 59.3717C77.3317 59.3717 77.7617 59.1734 78.0924 58.7767C78.4232 58.38 78.5886 57.7519 78.5886 56.9585C78.5886 56.0659 78.4232 55.4048 78.0924 55.0081C77.7617 54.6114 77.3648 54.4131 76.8355 54.4131C76.3394 54.4131 75.9425 54.6114 75.6117 55.0081C75.314 55.4048 75.1487 55.9668 75.1487 56.7602ZM80.6724 60.8263H78.754V59.6692C78.4232 60.099 78.0594 60.4626 77.6294 60.661C77.1994 60.8924 76.7694 60.9916 76.3063 60.9916C75.4133 60.9916 74.6525 60.6279 73.991 59.9007C73.3626 59.1734 73.0318 58.1816 73.0318 56.8593C73.0318 55.537 73.3295 54.5453 73.9579 53.8511C74.5864 53.1568 75.3802 52.8263 76.3063 52.8263C77.1663 52.8263 77.9271 53.1899 78.5886 53.9172V50.0164H80.6724V60.8263Z" fill="white"/>
<path fill-rule="evenodd" clip-rule="evenodd" d="M87.3539 56.2644C87.3539 55.6694 87.1885 55.2066 86.8908 54.9091C86.5932 54.6115 86.2293 54.4462 85.8324 54.4462C85.3693 54.4462 85.0055 54.6115 84.7078 54.9421C84.4101 55.2727 84.2778 55.7025 84.2778 56.2975H87.3539V56.2644ZM87.2547 58.3471L89.3054 58.6777C89.0408 59.438 88.6108 60 88.0485 60.3967C87.4862 60.7934 86.7585 60.9917 85.8986 60.9917C84.5424 60.9917 83.5171 60.562 82.8886 59.6694C82.3594 58.9421 82.1279 58.0496 82.1279 56.9586C82.1279 55.6694 82.4586 54.6446 83.1532 53.9173C83.8147 53.1901 84.6747 52.8264 85.7332 52.8264C86.8908 52.8264 87.817 53.2231 88.4785 53.9834C89.14 54.7438 89.4708 55.9339 89.4377 57.5206H84.2447C84.2447 58.1487 84.4101 58.6115 84.7409 58.9421C85.0717 59.2727 85.4686 59.438 85.9316 59.438C86.2624 59.438 86.527 59.3388 86.7585 59.1735C86.957 59.0082 87.1554 58.7438 87.2547 58.3471Z" fill="white"/>
<path fill-rule="evenodd" clip-rule="evenodd" d="M90.5622 57.3223L92.6791 57.1239C92.8114 57.8181 93.076 58.3471 93.4398 58.6776C93.8367 59.0082 94.3659 59.1735 95.0275 59.1735C95.7221 59.1735 96.2513 59.0413 96.6151 58.7438C96.979 58.4462 97.1443 58.1157 97.1443 57.6859C97.1443 57.4214 97.0782 57.2231 96.9128 57.0247C96.7474 56.8595 96.5159 56.6942 96.119 56.5619C95.8544 56.4628 95.2921 56.3305 94.3659 56.0991C93.2083 55.8016 92.3814 55.438 91.9183 55.0413C91.2568 54.4462 90.926 53.719 90.926 52.8595C90.926 52.2975 91.0914 51.8016 91.3891 51.3057C91.6868 50.8429 92.1498 50.4793 92.7452 50.2148C93.3406 49.9504 94.0352 49.8512 94.8621 49.8512C96.2182 49.8512 97.2436 50.1487 97.9051 50.7438C98.5997 51.3388 98.9635 52.1322 98.9966 53.1239L96.8136 53.2231C96.7144 52.6611 96.5159 52.2644 96.2182 52.033C95.9205 51.8016 95.4575 51.6694 94.829 51.6694C94.2006 51.6694 93.7044 51.8016 93.3406 52.0661C93.1091 52.2314 93.0098 52.4628 93.0098 52.7272C93.0098 52.9917 93.1091 53.19 93.3406 53.3884C93.6052 53.6198 94.2667 53.8512 95.3582 54.1157C96.4167 54.3801 97.2105 54.6115 97.7066 54.876C98.2028 55.1405 98.5997 55.5041 98.8974 55.9669C99.1951 56.4297 99.3274 56.9917 99.3274 57.6859C99.3274 58.314 99.162 58.876 98.7981 59.438C98.4674 59.9669 97.9712 60.3966 97.3428 60.6281C96.7143 60.8925 95.9205 61.0247 94.9944 61.0247C93.6383 61.0247 92.5798 60.6942 91.8522 60.0661C91.1576 59.438 90.7276 58.5123 90.5622 57.3223Z" fill="white"/>
<path fill-rule="evenodd" clip-rule="evenodd" d="M100.188 53.0247H102.404L104.289 58.5784L106.108 53.0247H108.258L105.513 60.5289L105.017 61.8842C104.851 62.347 104.653 62.6776 104.488 62.9421C104.322 63.1735 104.124 63.3718 103.925 63.5371C103.727 63.6693 103.462 63.8016 103.131 63.9008C102.834 63.9999 102.47 64.033 102.073 64.033C101.676 64.033 101.279 63.9999 100.915 63.9008L100.717 62.2809C101.048 62.347 101.345 62.3801 101.577 62.3801C102.073 62.3801 102.404 62.2479 102.635 61.9503C102.867 61.6528 103.032 61.3222 103.165 60.8594L100.188 53.0247Z" fill="white"/>
<path fill-rule="evenodd" clip-rule="evenodd" d="M108.82 58.5787L110.904 58.2481C111.003 58.6448 111.169 58.9423 111.433 59.1737C111.698 59.3721 112.095 59.4713 112.558 59.4713C113.087 59.4713 113.484 59.3721 113.749 59.1737C113.914 59.0415 114.013 58.8432 114.013 58.6118C114.013 58.4465 113.98 58.3142 113.881 58.2151C113.782 58.1159 113.55 58.0167 113.186 57.9506C111.533 57.587 110.474 57.2564 110.011 56.9589C109.383 56.5291 109.085 55.9341 109.085 55.2068C109.085 54.5456 109.35 53.9506 109.879 53.4878C110.408 53.025 111.235 52.7936 112.359 52.7936C113.418 52.7936 114.212 52.9589 114.741 53.3225C115.27 53.6861 115.634 54.182 115.799 54.8762L113.848 55.2399C113.749 54.9423 113.616 54.7109 113.385 54.5456C113.153 54.3804 112.823 54.3142 112.393 54.3142C111.83 54.3142 111.466 54.3804 111.235 54.5456C111.069 54.6448 111.003 54.7771 111.003 54.9754C111.003 55.1076 111.069 55.2399 111.202 55.339C111.4 55.4713 112.029 55.6696 113.12 55.9341C114.212 56.1985 115.006 56.4961 115.436 56.8597C115.866 57.2233 116.097 57.7523 116.097 58.3804C116.097 59.1076 115.799 59.7027 115.204 60.2316C114.609 60.7605 113.716 60.9919 112.558 60.9919C111.499 60.9919 110.639 60.7605 110.044 60.3308C109.416 59.9341 109.019 59.339 108.82 58.5787Z" fill="white"/>
<path fill-rule="evenodd" clip-rule="evenodd" d="M121.521 53.0248V54.6777H120.099V57.8182C120.099 58.4463 120.099 58.843 120.132 58.9422C120.165 59.0414 120.232 59.1405 120.331 59.2067C120.43 59.2728 120.529 59.3058 120.695 59.3058C120.893 59.3058 121.158 59.2397 121.521 59.1075L121.687 60.7273C121.191 60.9257 120.662 61.0248 120.066 61.0248C119.702 61.0248 119.372 60.9587 119.041 60.8265C118.743 60.6943 118.512 60.529 118.379 60.3306C118.247 60.1323 118.148 59.8678 118.082 59.5372C118.049 59.3058 118.015 58.81 118.015 58.0827V54.6777H117.089V53.0248H118.049V51.4711L120.132 50.248V52.9918H121.521V53.0248Z" fill="white"/>
<path fill-rule="evenodd" clip-rule="evenodd" d="M127.608 56.2644C127.608 55.6694 127.442 55.2066 127.145 54.9091C126.847 54.6115 126.483 54.4462 126.053 54.4462C125.59 54.4462 125.226 54.6115 124.929 54.9421C124.631 55.2727 124.499 55.7025 124.499 56.2975H127.608V56.2644ZM127.475 58.3471L129.526 58.6777C129.262 59.438 128.832 60 128.269 60.3967C127.707 60.7934 126.979 60.9917 126.119 60.9917C124.763 60.9917 123.738 60.562 123.109 59.6694C122.58 58.9421 122.349 58.0496 122.349 56.9586C122.349 55.6694 122.679 54.6446 123.374 53.9173C124.036 53.1901 124.895 52.8264 125.954 52.8264C127.112 52.8264 128.038 53.2231 128.699 53.9834C129.361 54.7438 129.692 55.9339 129.658 57.5206H124.465C124.465 58.1487 124.631 58.6115 124.962 58.9421C125.292 59.2727 125.689 59.438 126.152 59.438C126.483 59.438 126.748 59.3388 126.979 59.1735C127.211 59.0082 127.376 58.7438 127.475 58.3471Z" fill="white"/>
<path fill-rule="evenodd" clip-rule="evenodd" d="M131.18 53.0248H133.098V54.0826C133.793 53.2562 134.587 52.8264 135.546 52.8264C136.042 52.8264 136.472 52.9256 136.836 53.1239C137.2 53.3223 137.498 53.6529 137.729 54.0496C138.06 53.6198 138.457 53.3223 138.854 53.1239C139.251 52.9256 139.681 52.8264 140.111 52.8264C140.673 52.8264 141.169 52.9586 141.566 53.19C141.963 53.4215 142.261 53.752 142.459 54.2148C142.591 54.5454 142.657 55.0743 142.657 55.8347V60.8264H140.574V56.3636C140.574 55.6033 140.507 55.0743 140.375 54.876C140.177 54.5785 139.879 54.4462 139.482 54.4462C139.184 54.4462 138.92 54.5454 138.655 54.7107C138.391 54.876 138.225 55.1405 138.093 55.471C137.994 55.8016 137.928 56.3636 137.928 57.0909V60.8264H135.844V56.5289C135.844 55.7686 135.811 55.2727 135.745 55.0413C135.678 54.8099 135.546 54.6446 135.414 54.5454C135.248 54.4462 135.05 54.3801 134.785 54.3801C134.455 54.3801 134.19 54.4793 133.925 54.6446C133.661 54.8099 133.495 55.0743 133.363 55.3719C133.264 55.7024 133.198 56.2314 133.198 56.9917V60.8264H131.114V53.0248H131.18Z" fill="white"/>
<path fill-rule="evenodd" clip-rule="evenodd" d="M144.014 58.5787L146.097 58.2481C146.197 58.6448 146.362 58.9423 146.627 59.1737C146.891 59.3721 147.288 59.4713 147.751 59.4713C148.28 59.4713 148.677 59.3721 148.942 59.1737C149.107 59.0415 149.206 58.8432 149.206 58.6118C149.206 58.4465 149.173 58.3142 149.074 58.2151C148.975 58.1159 148.743 58.0167 148.38 57.9506C146.726 57.587 145.667 57.2564 145.204 56.9589C144.576 56.5291 144.278 55.9341 144.278 55.2068C144.278 54.5456 144.543 53.9506 145.072 53.4878C145.601 53.025 146.428 52.7936 147.553 52.7936C148.611 52.7936 149.405 52.9589 149.934 53.3225C150.463 53.6861 150.827 54.182 150.993 54.8762L149.041 55.2399C148.942 54.9423 148.81 54.7109 148.578 54.5456C148.347 54.3804 148.016 54.3142 147.586 54.3142C147.023 54.3142 146.66 54.3804 146.428 54.5456C146.263 54.6448 146.197 54.7771 146.197 54.9754C146.197 55.1076 146.263 55.2399 146.395 55.339C146.593 55.4713 147.222 55.6696 148.313 55.9341C149.405 56.1985 150.199 56.4961 150.629 56.8597C151.059 57.2233 151.29 57.7523 151.29 58.3804C151.29 59.1076 150.993 59.7027 150.397 60.2316C149.802 60.7605 148.909 60.9919 147.751 60.9919C146.693 60.9919 145.833 60.7605 145.237 60.3308C144.609 59.9341 144.212 59.339 144.014 58.5787Z" fill="white"/>
</g>
<defs>
<clipPath id="clip0">
<rect width="180" height="64" fill="white"/>
</clipPath>
</defs>
</svg>
