<svg width="23" height="20" viewBox="0 0 23 20" fill="none" xmlns="http://www.w3.org/2000/svg">
<path d="M5.22727 20H17.7727L11.5 13.6842L5.22727 20ZM20.9091 0H2.09091C1.53637 0 1.00453 0.221804 0.612413 0.616617C0.220292 1.01143 0 1.54691 0 2.10526V14.7368C0 15.2952 0.220292 15.8307 0.612413 16.2255C1.00453 16.6203 1.53637 16.8421 2.09091 16.8421H6.27273V14.7368H2.09091V2.10526H20.9091V14.7368H16.7273V16.8421H20.9091C21.4636 16.8421 21.9955 16.6203 22.3876 16.2255C22.7797 15.8307 23 15.2952 23 14.7368V2.10526C23 1.54691 22.7797 1.01143 22.3876 0.616617C21.9955 0.221804 21.4636 0 20.9091 0Z" fill="white"/>
</svg>
