<svg width="53" height="51" viewBox="0 0 53 51" fill="none" xmlns="http://www.w3.org/2000/svg">
<path d="M7.09475 22C7.49475 18 10.9281 14.3333 12.5948 13C14.4281 14.3333 18.6947 17.3 21.0947 18.5C24.0947 20 29.0947 22 35.0947 23C39.8947 23.8 43.7614 24 45.0947 24L47.0947 25C47.0947 26.8333 46.7947 31.3 45.5947 34.5C44.3947 37.7 40.0947 39.8333 38.0947 40.5C32.5947 39.8333 20.9947 38.4 18.5947 38C15.5947 37.5 14.0948 37 11.0948 35C8.09475 33 6.59475 27 7.09475 22Z" fill="#5782A3"/>
<path d="M28.9996 22C28.9996 22 32.2466 37.4649 17.4092 37.646L37.7917 39.9771C37.7917 39.9771 40.0497 39.6584 43.3935 36.8037C46.7373 33.9491 46.2367 24.6927 46.2367 24.6927" stroke="#91AABF" stroke-width="2" stroke-miterlimit="22.9256" stroke-linejoin="bevel"/>
<path d="M11.4998 13C11.4998 13 3.5 22 7.66773 30.1902C10.7517 37.3546 17.4094 37.6461 17.4094 37.6461" stroke="#91AABF" stroke-width="2" stroke-miterlimit="22.9256" stroke-linejoin="bevel"/>
<path d="M14.5816 18.1777C18.6231 16.4381 23.3799 18.6364 25.2382 22.9535C27.136 27.3623 25.3318 32.2761 21.3822 33.9762C17.3407 35.7159 12.5839 33.5175 10.7256 29.2005C8.77545 24.923 10.5401 19.9174 14.5816 18.1777Z" stroke="#91AABF" stroke-width="2" stroke-miterlimit="22.9256" stroke-linejoin="bevel"/>
</svg>
