<svg width="42" height="56" viewBox="0 0 42 56" fill="none" xmlns="http://www.w3.org/2000/svg">
<g clip-path="url(#clip0)">
<path d="M0.17334 20.1279C1.05628 19.3666 2.20073 18.9787 3.36458 19.0462V19.0462C5.23065 19.2003 5.46593 19.9791 5.46593 19.9791L8.65447 10.4006C8.52822 10.4421 8.39195 10.4419 8.26582 10.4C8.13968 10.3582 8.03036 10.2768 7.95402 10.168V10.168C7.64301 9.77862 7.95402 7.68011 6.63155 7.36641C5.30908 7.05542 5.07649 7.44484 4.21919 7.29069C3.36458 7.13384 3.36458 6.74984 3.05357 6.82285C2.74256 6.90128 1.35248 9.7029 0.795362 12.6587C0.251769 15.6144 0.17334 20.1279 0.17334 20.1279Z" stroke="white" stroke-linejoin="bevel"/>
<path d="M3.05332 6.82262C2.97489 7.13361 3.36433 7.13361 4.21893 7.30127C5.07624 7.45542 5.30071 7.066 6.6313 7.37699C7.95377 7.69069 7.64276 9.7892 7.95377 10.1786C8.03011 10.2874 8.13943 10.3687 8.26557 10.4106C8.3917 10.4525 8.52797 10.4527 8.65422 10.4112C8.65422 10.4112 11.0666 3.95609 11.3776 3.65051C11.6886 3.32059 8.18635 0.053833 8.18635 0.053833C8.18635 0.053833 4.05667 3.08802 3.05332 6.82262Z" stroke="white" stroke-linejoin="bevel"/>
<path d="M4.45996 20.3415C4.81992 20.4444 5.16002 20.6071 5.46602 20.8229V20.8229C5.46602 20.8229 5.38759 22.221 4.92513 22.221C4.45455 22.2264 4.45996 20.3415 4.45996 20.3415Z" stroke="white" stroke-linejoin="bevel"/>
<path d="M2.71533 26.5316L3.80522 26.9994" stroke="white" stroke-linejoin="bevel"/>
<path d="M3.80536 26.9994C3.80536 26.9994 4.376 29.6442 4.53015 30.5149C4.68457 31.6157 4.77487 32.7245 4.8006 33.8358V33.8358C4.8006 34.3523 3.86756 30.9314 3.86756 30.9314C3.86756 30.9314 2.78578 31.0342 2.36389 31.2424C1.94741 31.4479 2.41528 26.7803 2.51805 26.5748C2.62352 26.3666 2.72629 26.5207 2.72629 26.5207" stroke="white" stroke-linejoin="bevel"/>
<path d="M2.71533 26.5316L7.07219 28.2947" stroke="white" stroke-linejoin="bevel"/>
<path d="M7.07196 28.2948C7.07196 28.2948 7.2802 25.4445 7.43435 25.3904C7.59121 25.339 5.1518 24.4574 4.89218 24.0382C4.74582 23.8217 4.65737 23.5712 4.63525 23.3108" stroke="white" stroke-linejoin="bevel"/>
<path d="M4.6357 23.3162L2.40453 22.8511L2.19629 25.8068L2.71554 26.5316" stroke="white" stroke-linejoin="bevel"/>
<path d="M1.99061 25.4445L1.93652 29.125L2.7154 29.2304L2.81817 25.65L1.99061 25.4445Z" stroke="white" stroke-linejoin="bevel"/>
<path d="M4.78966 33.8466C4.78966 34.3631 3.85662 30.9422 3.85662 30.9422C3.85662 30.9422 2.77485 31.045 2.35295 31.2532C2.35295 31.2532 0.100151 32.4972 0.0704026 33.276C0.0190182 34.6281 0.952051 36.5427 1.15218 37.7353C1.35772 38.9279 1.35772 39.8095 1.56596 40.1205C1.75798 40.4125 2.55308 41.3158 3.5375 41.0562C4.52192 40.7857 5.9715 39.9745 5.76866 39.0848C5.56042 38.2032 4.78154 35.4529 4.78154 35.0283L4.78966 33.8466Z" stroke="white" stroke-linejoin="bevel"/>
<path d="M1.99076 32.3403C1.99076 32.3403 2.26121 32.654 2.30177 32.3944C2.35316 32.124 2.45593 30.5772 2.57222 29.2304C2.58844 29.0438 1.9502 29.125 1.9502 29.125L1.99076 32.3403Z" stroke="white" stroke-linejoin="bevel"/>
<path d="M4.45973 20.3415C3.90347 20.1655 3.32557 20.0672 2.74241 20.0494V20.0494C0.873636 19.971 0.719482 20.8228 0.719482 20.8228C0.719482 20.8228 1.10622 26.1124 2.74241 26.2665C4.36507 26.4234 4.29746 25.0226 4.45432 24.479C4.59765 23.9381 4.45973 20.3415 4.45973 20.3415Z" stroke="white" stroke-linejoin="bevel"/>
<path d="M2.66377 24.3384C2.04175 24.1058 2.04175 22.7834 2.04175 22.7834C3.51837 22.4725 3.82938 22.9376 3.82938 23.0944C3.82938 23.2378 3.28579 24.5628 2.66377 24.3384Z" stroke="white" stroke-linejoin="bevel"/>
<path d="M2.50718 21.9046C1.26314 21.8289 1.4254 21.05 1.4254 21.05H3.99462C3.99462 21.05 3.75393 21.9938 2.50718 21.9046Z" stroke="white" stroke-linejoin="bevel"/>
<path d="M2.58545 23.2378L2.74231 20.0495L3.20747 19.8169L3.12904 23.7056L2.58545 23.2378Z" stroke="white" stroke-linejoin="bevel"/>
<path d="M3.38896 23.8868L3.75406 20.0873L3.20776 19.8169L3.28619 23.5488L3.38896 23.8868Z" stroke="white" stroke-linejoin="bevel"/>
<path d="M5.46593 19.971C5.46593 19.971 5.23065 19.2003 3.36458 19.038C2.20073 18.9706 1.05628 19.3585 0.17334 20.1197" stroke="white" stroke-linejoin="bevel"/>
<path d="M0.17334 20.1279L0.719637 20.8283" stroke="white" stroke-linejoin="bevel"/>
<path d="M0.719482 20.8228C0.719482 20.8228 0.873636 19.9656 2.74241 20.044C4.59766 20.1278 5.46578 20.8228 5.46578 20.8228" stroke="white" stroke-linejoin="bevel"/>
<path d="M5.46582 20.8283V19.971" stroke="white" stroke-linejoin="bevel"/>
<path d="M8.31637 30.0606C8.31637 30.0606 6.96415 30.2148 7.07232 28.2947C7.17509 26.3774 7.22918 25.4958 7.43472 25.3903C7.64296 25.2876 8.26498 25.8068 8.31637 26.1692C8.37046 26.5315 8.31637 29.8524 8.31637 29.8524" stroke="white" stroke-linejoin="bevel"/>
<path d="M8.31616 29.8524V30.0607" stroke="white" stroke-linejoin="bevel"/>
<path d="M8.57593 25.7798C8.57593 25.7798 17.1896 26.5532 21.8034 26.6641C22.5471 26.6924 23.2917 26.6834 24.0345 26.637V26.637C25.1758 26.5316 24.305 30.0066 24.305 30.0066C24.305 30.0066 10.1202 29.1006 8.79499 28.6544C8.62731 28.6085 8.57593 25.7798 8.57593 25.7798Z" stroke="white" stroke-linejoin="bevel"/>
<path d="M8.57577 30.3176C8.57577 30.3176 8.96521 30.4744 8.99226 30.3176C9.06798 29.8578 8.88678 26.7398 8.78401 26.3261C8.73169 26.1396 8.66197 25.9586 8.57577 25.7852V25.7852C8.4081 25.4418 8.18633 25.1308 8.05922 25.2443C7.51833 25.6987 8.14847 25.4769 8.30533 26.3585C8.45948 27.2401 8.30533 30.0688 8.30533 30.0688L8.57577 30.3176Z" stroke="white" stroke-linejoin="bevel"/>
<path d="M23.3582 21.9046C23.3582 21.9046 24.5535 8.78344 25.3838 8.68068C26.2113 8.57521 27.3012 8.78344 27.6636 8.57521C28.0287 8.36698 28.0801 7.38263 28.4425 7.38263C28.4425 7.38263 34.2003 7.48539 34.6627 7.745C35.0175 7.99334 35.3175 8.31179 35.5444 8.68068C35.5444 8.68068 33.8838 11.6878 33.3132 14.1244C32.8237 16.2175 32.3802 25.2768 32.3802 25.2768C32.3802 25.2768 29.1159 23.8868 27.404 23.2567C25.6921 22.6428 23.3582 21.9046 23.3582 21.9046Z" stroke="white" stroke-linejoin="bevel"/>
<path d="M35.5498 8.69151C35.323 8.32262 35.0229 8.00417 34.6681 7.75584V7.75584C34.2002 7.48541 28.4479 7.39346 28.4479 7.39346C28.0855 7.39346 28.0341 8.37782 27.669 8.58605C27.3066 8.79428 26.2167 8.58605 25.3892 8.69151C25.3892 8.69151 29.0131 4.32682 30.8792 3.8671C32.2936 3.51284 35.7472 3.81572 36.8966 4.69731C38.0379 5.5789 38.7654 6.1495 39.1277 6.35503C39.4901 6.56325 37.3644 6.35503 36.5342 6.92563C36.1069 7.22039 35.5498 8.69151 35.5498 8.69151Z" stroke="white" stroke-linejoin="bevel"/>
<path d="M32.6455 25.8582L31.4529 32.0293L30.8281 33.587L25.5896 33.3787L24.1887 24.1978L26.0575 24.3032L32.6455 25.8582Z" stroke="white" stroke-linejoin="bevel"/>
<path d="M26.5769 23.2567L24.4485 22.9863C24.4485 22.9863 24.4485 27.5835 24.7595 28.7437C25.176 30.3662 25.9008 31.337 27.7695 31.337C31.1014 31.3695 31.3989 26.1178 31.3989 26.1178L26.5769 23.2567Z" stroke="white" stroke-linejoin="bevel"/>
<path d="M28.0803 30.4744C27.4583 30.5772 26.317 30.6286 25.9546 29.747C25.5895 28.8654 25.7464 27.6728 25.7464 27.6728C25.7464 27.6728 26.5767 26.9481 27.5097 26.9994C28.4427 27.0508 29.3758 27.6214 29.4298 28.622C29.4785 29.5928 28.7024 30.3717 28.0803 30.4744Z" stroke="white" stroke-linejoin="bevel"/>
<path d="M27.9235 26.326C26.3171 26.1178 25.0703 24.9252 25.0703 24.9252L30.1033 25.8582C30.1033 25.8582 29.5326 26.5316 27.9235 26.326Z" stroke="white" stroke-linejoin="bevel"/>
<path d="M23.2041 23.0566C23.2041 23.0566 23.1014 24.5088 23.2041 24.717C23.3069 24.9252 23.7748 25.1335 23.7748 25.1335" stroke="white" stroke-linejoin="bevel"/>
<path d="M23.775 25.1335L23.8778 23.3162L23.2043 23.0566" stroke="white" stroke-linejoin="bevel"/>
<path d="M26.5226 33.587L26.5172 33.276L26.4714 30.6312" stroke="white" stroke-linejoin="bevel"/>
<path d="M26.4714 30.6312C26.4714 30.6312 26.7419 30.1634 26.9393 30.2148C27.2427 30.305 27.5561 30.3576 27.8723 30.3716V30.3716C28.2347 30.3716 28.2888 29.8524 28.4944 29.8524C28.7026 29.8524 30.8797 31.8752 30.9284 32.1862C30.9797 32.4972 29.0596 33.2679 28.8 33.4302C28.5295 33.587 26.5174 33.587 26.5174 33.587" stroke="white" stroke-linejoin="bevel"/>
<path d="M26.5768 37.0106C26.5768 37.0106 24.5025 37.062 23.8264 37.4244C23.153 37.7867 22.4255 38.7765 22.5824 40.1746C22.7365 41.5727 24.8703 47.0516 25.3842 47.5383C26.42 48.5254 29.3245 46.7595 29.6356 46.5026C29.9466 46.2322 28.1833 38.4087 28.1833 38.4087L26.5768 37.0106Z" stroke="white" stroke-linejoin="bevel"/>
<path d="M25.019 38.1518H25.4355L25.5383 34.6228L25.2787 34.52L25.019 38.1518Z" stroke="white" stroke-linejoin="bevel"/>
<path d="M28.1831 38.4006L26.939 37.208L26.5766 37.0025L25.8491 34.209L25.9546 33.276C25.9546 33.276 28.1181 33.0678 28.3399 33.0678C28.5454 33.0678 27.5096 33.7412 27.3528 34.209C27.1986 34.6769 27.5096 35.8181 27.7693 36.6429C27.9421 37.22 28.0803 37.807 28.1831 38.4006V38.4006Z" stroke="white" stroke-linejoin="bevel"/>
<path d="M24.9673 34.7796L24.8645 33.898C24.8645 33.898 23.7827 27.4077 23.7827 26.1178C23.7827 24.8197 23.8855 23.3162 23.8855 23.3162L24.9673 23.473C24.8215 25.2041 24.8741 26.9461 25.1241 28.6652V28.6652C25.3675 30.258 26.1085 34.4226 26.1599 34.5767C26.2113 34.7282 24.9673 34.7796 24.9673 34.7796Z" stroke="white" stroke-linejoin="bevel"/>
<path d="M23.3582 21.9046C23.3582 21.9046 25.6949 22.632 27.4149 23.2567C29.1268 23.8787 32.3965 25.2795 32.3965 25.2795C32.3965 25.2795 32.84 16.2202 33.3295 14.1271C33.9002 11.6933 35.5607 8.68341 35.5607 8.68341C35.5607 8.68341 36.1178 7.21229 36.5451 6.91752C37.3754 6.34692 39.5011 6.55515 39.1387 6.34692C39.1387 6.34692 40.3854 6.50377 40.7992 7.23122C41.213 7.95596 41.881 9.30539 41.9405 10.7468C41.9918 12.199 41.4266 8.28318 39.4497 7.84238C36.4423 7.16632 34.8521 11.0875 34.2625 14.4273C33.746 17.3344 33.1213 25.8907 33.0699 26.0989C33.0185 26.3071 31.8772 26.3071 30.8387 25.7879C29.8029 25.2687 27.3635 23.8165 25.9112 23.6083C24.9984 23.4765 24.095 23.2859 23.2068 23.0377" stroke="white" stroke-linejoin="bevel"/>
<path d="M23.2043 23.0566L23.3585 21.9154" stroke="white" stroke-linejoin="bevel"/>
<path d="M21.9602 26.8426C21.9602 26.8426 25.2786 27.5836 26.3684 27.3131" stroke="white" stroke-linejoin="bevel"/>
<path d="M26.3682 27.3104L26.4709 29.9552" stroke="white" stroke-linejoin="bevel"/>
<path d="M26.4714 29.9552C25.7927 30.2856 25.0478 30.4573 24.2929 30.4573C23.5381 30.4573 22.7932 30.2856 22.1145 29.9552" stroke="white" stroke-linejoin="bevel"/>
<path d="M22.1144 29.9552L21.9602 26.8426" stroke="white" stroke-linejoin="bevel"/>
<path d="M1.99048 28.192L2.6125 28.2948L1.99048 28.192Z" stroke="white" stroke-linejoin="bevel"/>
<path d="M30.4656 47.176C30.4656 47.176 33.0078 55.0589 34.6142 55.9405" stroke="white" stroke-linejoin="bevel"/>
<path d="M34.6143 55.9405L35.4986 54.9561" stroke="white" stroke-linejoin="bevel"/>
<path d="M35.4987 54.9561C35.4987 54.9561 33.319 48.7363 33.1621 46.554" stroke="white" stroke-linejoin="bevel"/>
<path d="M33.1619 46.554L30.4656 47.1759" stroke="white" stroke-linejoin="bevel"/>
<path d="M24.865 33.898L25.798 33.6898L24.865 33.898Z" stroke="white" stroke-linejoin="bevel"/>
<path d="M33.1618 46.554C33.1618 46.554 33.1104 38.7738 33.1618 36.9565C33.2158 35.1419 31.7636 32.0888 31.4525 32.0293C31.1388 31.9779 28.5994 33.0164 28.5994 33.0164C28.5994 33.0164 27.4581 33.7925 27.3526 34.209C27.2498 34.6227 28.7048 40.226 28.9104 41.3672C29.1159 42.5084 29.6865 46.3971 29.8948 46.7595C30.103 47.1246 31.7636 47.4869 33.1618 46.554Z" stroke="white" stroke-linejoin="bevel"/>
<path d="M33.1622 46.554C31.9182 47.2787 30.1035 47.1246 29.8953 46.7595C29.687 46.3971 29.1164 42.5084 28.9109 41.3672C28.7026 40.226 27.2503 34.6228 27.3531 34.209C27.4586 33.7925 28.5998 33.1706 28.5998 33.1706C28.5998 33.1706 31.2448 32.0294 31.453 32.0294C31.453 32.0294 28.2888 33.587 28.0292 34.0521C27.7588 34.52 28.6512 38.1518 28.9109 39.2389C29.1813 40.3206 30.0521 45.8265 30.3118 46.243C30.5606 46.6567 33.1622 46.554 33.1622 46.554Z" stroke="white" stroke-linejoin="bevel"/>
<path d="M34.5628 2.72586C34.2518 2.10388 33.6297 1.89294 32.3343 1.89294C31.0362 1.89294 28.0288 6.19814 27.872 6.61189C27.7178 7.02835 27.872 7.85856 27.872 7.85856L28.2344 7.90994C28.2344 7.90994 28.5454 6.92288 28.7536 6.82823C28.9619 6.72547 32.6967 7.03646 33.3187 7.19061C33.9408 7.34745 33.6811 8.6428 33.6811 8.6428L33.9921 8.17766C34.3031 7.70442 34.8873 3.34784 34.5628 2.72586Z" stroke="white" stroke-linejoin="bevel"/>
<path d="M34.0465 4.28086C33.8911 4.7627 33.596 5.18751 33.1988 5.50143C32.8016 5.81534 32.32 6.0042 31.8153 6.04405V6.04405C30.8282 6.04405 29.741 4.69191 30.674 3.55612C31.6071 2.41492 32.3346 2.41492 32.7483 2.41492C33.3163 2.41492 34.5116 2.9747 34.0465 4.28086Z" stroke="white" stroke-linejoin="bevel"/>
<path d="M9.4817 2.66371C9.26805 2.12286 8.76502 1.90111 7.68054 1.80646C6.59876 1.71181 3.76991 5.08674 3.60764 5.42207C3.50811 5.75863 3.47685 6.11169 3.51569 6.4605V6.4605L3.81318 6.53082C3.81318 6.53082 4.14583 5.71954 4.32703 5.66004C4.50822 5.58703 7.60481 6.12247 8.11325 6.29825C8.62169 6.47132 8.31067 7.5368 8.31067 7.5368L8.60546 7.16902C8.90024 6.80124 9.69805 3.20456 9.4817 2.66371Z" stroke="white" stroke-linejoin="bevel"/>
<path d="M8.92459 3.92391C8.7595 4.31504 8.48188 4.64829 8.127 4.88133C7.77211 5.11438 7.35597 5.2367 6.93142 5.23277V5.23277C6.12008 5.16246 5.30875 3.95636 6.16065 3.06936C7.02607 2.18236 7.63187 2.23644 7.97804 2.25808C8.46484 2.31216 9.4195 2.87465 8.92459 3.92391Z" stroke="white" stroke-linejoin="bevel"/>
</g>
<defs>
<clipPath id="clip0">
<rect width="42" height="56" fill="white"/>
</clipPath>
</defs>
</svg>
