<svg width="36" height="56" viewBox="0 0 36 56" fill="none" xmlns="http://www.w3.org/2000/svg">
<g clip-path="url(#clip0)">
<path d="M31.0965 50.7872H19.9863V51.4498H31.0965V50.7872Z" stroke="white" stroke-width="2" stroke-miterlimit="10"/>
<path d="M31.0966 43.6971V44.3597L19.9863 42.4116V41.749L31.0966 43.6971Z" stroke="white" stroke-width="2" stroke-miterlimit="10"/>
<path d="M31.0966 50.7871H19.9863V42.4116L31.0966 44.3597V50.7871Z" stroke="white" stroke-width="2" stroke-miterlimit="10"/>
<path d="M24.5771 1.87248C25.6365 0.0701518 26.8453 0.123162 27.4565 0.295443C28.0677 0.467725 28.448 0.533987 28.448 0.533987C28.448 0.533987 31.0966 0.215928 31.5176 0.321948C31.9387 0.427967 31.8436 0.944812 31.8436 0.944812C31.8436 0.944812 32.903 1.10384 33.2833 1.22311C33.65 1.32913 33.7043 1.63394 33.7043 1.63394C33.7043 1.63394 33.7043 1.63394 33.5142 2.00501C33.324 2.37607 32.6857 2.00501 32.6857 2.00501C32.6857 2.00501 32.7536 2.74714 32.8487 3.14471C32.9573 3.54229 32.4548 3.52903 32.4548 3.52903C32.4548 3.52903 32.8351 4.58923 33.0796 5.2386C33.324 5.88797 33.0796 6.21928 33.0796 6.21928L32.5091 6.77588V7.98185H31.6806C31.6806 3.0652 27.6739 2.29656 26.044 3.8736C26.044 3.8736 26.7367 3.0917 25.9353 3.01219C25.46 2.97243 23.477 2.83991 23.477 2.83991L23.0559 2.99894C23.9523 2.00501 24.5771 1.87248 24.5771 1.87248ZM32.2782 6.21928C32.5499 5.86146 32.8215 5.83496 32.4548 4.97355C32.0881 4.11214 31.8843 3.43627 31.8843 3.43627L31.341 3.25073L31.2324 3.70132L32.2782 6.21928ZM29.8334 1.88573L31.2188 2.03151L31.9251 2.85316L32.0609 2.21704L31.667 1.50141L30.9743 1.22311L30.336 1.40865L29.5754 1.22311L29.8334 1.88573ZM26.5465 2.34957L27.4701 2.09777L28.7197 2.11103V1.56768H27.4158L26.0032 2.13753L26.5465 2.34957ZM26.7503 1.50141L26.465 1.22311L25.7588 1.4219L25.6094 1.77971L26.7503 1.50141Z" stroke="white" stroke-width="2" stroke-miterlimit="10"/>
<path d="M31.0967 20.3464C31.056 20.2801 31.0288 20.2138 31.0288 20.1343V19.962H31.0967V20.3464Z" stroke="white" stroke-width="2" stroke-miterlimit="10"/>
<path d="M31.4499 7.99512H33.3921C33.623 7.99512 33.8132 8.18065 33.8132 8.40594V8.57822H31.0288V8.40594C31.0288 8.18065 31.219 7.99512 31.4499 7.99512Z" stroke="white" stroke-width="2" stroke-miterlimit="10"/>
<path d="M33.8267 19.962H31.6943H31.0967H31.0288V8.57819H33.8267V19.962Z" stroke="white" stroke-width="2" stroke-miterlimit="10"/>
<path d="M31.6943 19.962H33.8267V20.1343C33.8267 20.3596 33.6365 20.5451 33.4057 20.5451H31.6943H31.4498C31.3004 20.5451 31.1646 20.4656 31.0967 20.3464V19.962H31.6943Z" stroke="white" stroke-width="2" stroke-miterlimit="10"/>
<path d="M31.4498 42.5309H31.6943V51.4498H31.151L31.0967 46.4802V42.3322C31.1782 42.4514 31.3004 42.5309 31.4498 42.5309Z" stroke="white" stroke-width="2" stroke-miterlimit="10"/>
<path d="M31.0967 41.9478H31.6943H34.6417V42.1201C34.6417 42.3454 34.4515 42.5309 34.2206 42.5309H31.6943H31.4499C31.3005 42.5309 31.1646 42.4514 31.0967 42.3321C31.056 42.2659 31.0288 42.1996 31.0288 42.1201V41.9478H31.0967Z" stroke="white" stroke-width="2" stroke-miterlimit="10"/>
<path d="M31.0967 30.7495H31.0288V41.9478H34.6417V30.7495H31.6943H31.0967Z" stroke="white" stroke-width="2" stroke-miterlimit="10"/>
<path d="M34.2206 30.1664H31.6943H31.4499C31.3005 30.1664 31.1646 30.2459 31.0967 30.3652C31.056 30.4314 31.0288 30.4977 31.0288 30.5772V30.7495H31.0967H31.6943H34.6417V30.5772C34.6417 30.3519 34.4515 30.1664 34.2206 30.1664Z" stroke="white" stroke-width="2" stroke-miterlimit="10"/>
<path d="M26.0304 3.88683C27.6467 2.30979 31.667 3.07843 31.667 7.99508H31.4633H31.2324C31.2324 6.44455 30.5804 3.63503 27.9183 3.63503C26.0032 3.63503 25.1476 6.25901 23.409 9.39984C21.7248 12.4479 20.5296 15.9598 20.5296 18.7163C20.5296 20.8234 20.5296 41.855 20.5296 41.855L19.9863 41.7623V18.1729C19.9863 12.9912 25.3785 4.52294 26.0304 3.88683Z" stroke="white" stroke-width="2" stroke-miterlimit="10"/>
<path d="M31.6942 20.5451C31.6942 20.5451 32.4548 20.4391 32.4548 21.5258C32.4548 22.6125 32.4548 26.5485 32.4548 27.6484C32.4548 28.7484 31.6807 28.6556 31.6807 28.6556L31.6942 20.5451Z" stroke="white" stroke-width="2" stroke-miterlimit="10"/>
<path d="M31.7079 43.9092C31.7079 43.9092 32.4685 43.8032 32.4685 44.8899C32.4685 45.9766 32.4685 49.3559 32.4685 50.4559C32.4685 51.5558 31.6943 51.4631 31.6943 51.4631L31.7079 43.9092Z" stroke="white" stroke-width="2" stroke-miterlimit="10"/>
<path d="M33.1067 8.57819V19.962" stroke="white" stroke-width="2" stroke-miterlimit="10"/>
<path d="M33.1067 20.5452C33.5413 21.1415 33.6771 20.7572 33.6771 24.945C33.6771 29.1327 33.6771 29.146 33.6771 29.146C33.6771 29.146 33.6771 29.6231 33.6364 30.1664" stroke="white" stroke-width="2" stroke-miterlimit="10"/>
<path d="M32.6992 20.5452C33.1339 21.1415 33.2697 20.7572 33.2697 24.945C33.2697 29.1327 33.2697 29.146 33.2697 29.146C33.2697 29.146 33.2697 29.6231 33.2289 30.1664" stroke="white" stroke-width="2" stroke-miterlimit="10"/>
<path d="M34.6416 39.1383V32.4591C35.28 32.4591 35.7961 32.9627 35.7961 33.5856V37.9986C35.7961 38.6347 35.28 39.1383 34.6416 39.1383Z" stroke="white" stroke-width="2" stroke-miterlimit="10"/>
<path d="M31.0694 51.4498C30.7299 52.8678 30.0508 53.4509 30.0508 54.1931H33.6908C33.6908 53.2124 32.482 52.4835 32.482 49.7005" stroke="white" stroke-width="2" stroke-miterlimit="10"/>
<path d="M19.6467 53.981C19.7418 53.8883 19.8097 53.8088 19.8505 53.7425C19.8097 53.822 19.7418 53.9015 19.6467 53.981Z" stroke="white" stroke-width="2" stroke-miterlimit="10"/>
<path d="M13.3311 54.7629C14.7844 54.7629 18.5195 54.9352 19.6604 53.981C19.416 54.4051 18.927 55.3195 17.433 55.7436C16.5365 55.9954 14.377 55.9159 12.9508 55.9159C7.8032 55.9159 3.36182 52.5895 3.10376 52.1257C3.33466 52.5232 3.56555 52.8943 3.81003 53.2389C4.50272 54.2726 11.4025 54.7629 13.3311 54.7629Z" stroke="white" stroke-width="2" stroke-miterlimit="10"/>
<path d="M19.9865 53.5702C19.9865 53.5702 19.9458 53.6365 19.8643 53.7425C19.905 53.6895 19.9186 53.6232 19.9458 53.5569L19.9865 53.5702Z" stroke="white" stroke-width="2" stroke-miterlimit="10"/>
<path d="M1.2294 40.8081C1.27015 40.7683 1.35164 40.8081 1.44672 40.9008C1.08 42.2526 0.903429 43.6574 0.984922 45.0886C1.13433 47.6463 1.88135 49.8065 2.76419 51.5028C2.41105 51.5293 2.0715 51.5293 1.97642 51.3305C1.81344 50.9992 0.0884978 49.2896 0.0884978 46.2283C0.0749156 43.167 1.2294 40.8081 1.2294 40.8081Z" stroke="white" stroke-width="2" stroke-miterlimit="10"/>
<path d="M13.0323 18.6235C14.6758 13.3756 19.4024 7.39874 22.6621 3.31699C23.2461 2.70738 23.6943 2.86641 23.6943 2.86641C24.5228 2.86641 25.7588 3.01219 25.9218 3.02544C26.0848 3.03869 26.6824 3.23748 26.0305 3.88685C25.3785 4.53622 19.9864 12.9913 19.9864 18.1597C18.8862 19.591 15.8982 22.0427 14.2276 23.4607C11.9729 25.369 9.36513 28.0195 9.36513 28.0195C9.27006 25.9919 11.8235 22.5065 13.0323 18.6235Z" stroke="white" stroke-width="2" stroke-miterlimit="10"/>
<path d="M1.4467 40.9009C2.15298 38.2902 3.55194 35.865 5.12748 33.7313C6.01032 32.5386 6.93391 31.4387 7.83033 30.4447C8.21063 29.8351 8.59094 29.2255 8.97124 28.6291C10.1393 26.8136 13.0323 24.6004 14.2004 23.58C17.1205 21.009 19.9864 18.1597 19.9864 18.1597C19.9864 18.1597 19.9864 52.0197 19.9864 53.3317C19.9864 53.4112 19.9728 53.4907 19.9456 53.5702C19.9321 53.6365 19.9049 53.6895 19.8641 53.7557C19.8098 53.822 19.7419 53.9015 19.6604 53.9943C18.5331 54.9485 14.798 54.7762 13.3311 54.7762C11.4024 54.7762 4.5027 54.2858 3.79642 53.2654C3.56553 52.9208 3.32105 52.5498 3.09015 52.1522C2.98149 51.9534 2.85925 51.7414 2.75059 51.5293C1.86775 49.833 1.12073 47.6729 0.971328 45.1152C0.903417 43.6574 1.07999 42.2526 1.4467 40.9009Z" stroke="white" stroke-width="2" stroke-miterlimit="10"/>
<path d="M12.2175 20.2138C12.4891 19.6572 12.7607 19.1271 13.0324 18.6235C11.81 22.5065 9.25654 25.9786 9.3652 28.0063C9.3652 28.0063 9.3652 28.0063 8.97131 28.6159C8.9034 28.7219 8.83549 28.8412 8.754 28.9472C8.63176 27.3171 10.6827 24.4016 12.2175 20.2138Z" stroke="white" stroke-width="2" stroke-miterlimit="10"/>
<path d="M8.57747 29.2388C8.31941 29.6363 8.07493 30.0339 7.81687 30.4447C6.92045 31.4387 5.99686 32.5386 5.11401 33.7313C5.33133 33.1217 5.57581 32.3928 5.86103 31.5712C6.86612 30.564 7.31433 30.1002 8.57747 29.2388Z" stroke="white" stroke-width="2" stroke-miterlimit="10"/>
<path d="M8.75385 28.9604C8.69952 29.0532 8.63161 29.1459 8.57728 29.2387C7.31413 30.1001 6.86592 30.564 5.86084 31.5711C6.961 28.3508 10.4652 23.8052 12.2173 20.2138C10.6825 24.4016 8.63161 27.3171 8.75385 28.9604Z" stroke="white" stroke-width="2" stroke-miterlimit="10"/>
<path d="M31.6943 30.1664C31.6943 30.1664 31.4091 30.1532 31.3004 30.1929C31.1918 30.2327 31.0967 30.3519 31.0967 30.3519V20.3464C31.1646 20.4656 31.3004 20.5452 31.4498 20.5452H31.6943V30.1664Z" stroke="white" stroke-width="2" stroke-miterlimit="10"/>
</g>
<defs>
<clipPath id="clip0">
<rect width="36" height="56" fill="white"/>
</clipPath>
</defs>
</svg>
